  0
SECTION
  2
HEADER
  9
$ACADVER
  1
AC1014
  9
$HANDSEED
  5
FFFF
  9
$MEASUREMENT
 70
     1
  0
ENDSEC
  0
SECTION
  2
TABLES
  0
TABLE
  2
VPORT
  5
8
330
0
100
AcDbSymbolTable
 70
     4
  0
VPORT
  5
2E
330
8
100
AcDbSymbolTableRecord
100
AcDbViewportTableRecord
  2
*ACTIVE
 70
     0
 10
0.0
 20
0.0
 11
1.0
 21
1.0
 12
210.0
 22
148.5
 13
0.0
 23
0.0
 14
10.0
 24
10.0
 15
10.0
 25
10.0
 16
0.0
 26
0.0
 36
1.0
 17
0.0
 27
0.0
 37
0.0
 40
341.0
 41
1.24
 42
50.0
 43
0.0
 44
0.0
 50
0.0
 51
0.0
 71
     0
 72
   100
 73
     1
 74
     3
 75
     0
 76
     0
 77
     0
 78
     0
  0
ENDTAB
  0
TABLE
  2
LTYPE
  5
5
330
0
100
AcDbSymbolTable
 70
     1
  0
LTYPE
  5
14
330
5
100
AcDbSymbolTableRecord
100
AcDbLinetypeTableRecord
  2
BYBLOCK
 70
     0
  3

 72
    65
 73
     0
 40
0.0
  0
LTYPE
  5
15
330
5
100
AcDbSymbolTableRecord
100
AcDbLinetypeTableRecord
  2
BYLAYER
 70
     0
  3

 72
    65
 73
     0
 40
0.0
  0
LTYPE
  5
16
330
5
100
AcDbSymbolTableRecord
100
AcDbLinetypeTableRecord
  2
CONTINUOUS
 70
     0
  3
Solid line
 72
    65
 73
     0
 40
0.0
  0
ENDTAB
  0
TABLE
  2
LAYER
  5
2
100
AcDbSymbolTable
 70
2
  0
LAYER
  5
50
100
AcDbSymbolTableRecord
100
AcDbLayerTableRecord
  2
0
 70
0
  6
CONTINUOUS
  0
LAYER
  5
51
100
AcDbSymbolTableRecord
100
AcDbLayerTableRecord
  2
Layer_1
 70
0
  6
CONTINUOUS
  0
ENDTAB
  0
TABLE
  2
STYLE
  5
3
330
0
100
AcDbSymbolTable
 70
     1
  0
STYLE
  5
11
330
3
100
AcDbSymbolTableRecord
100
AcDbTextStyleTableRecord
  2
STANDARD
 70
     0
 40
0.0
 41
1.0
 50
0.0
 71
     0
 42
2.5
  3
txt
  4

  0
ENDTAB
  0
TABLE
  2
VIEW
  5
6
330
0
100
AcDbSymbolTable
 70
     0
  0
ENDTAB
  0
TABLE
  2
UCS
  5
7
330
0
100
AcDbSymbolTable
 70
     0
  0
ENDTAB
  0
TABLE
  2
APPID
  5
9
330
0
100
AcDbSymbolTable
 70
     2
  0
APPID
  5
12
330
9
100
AcDbSymbolTableRecord
100
AcDbRegAppTableRecord
  2
ACAD
 70
     0
  0
ENDTAB
  0
TABLE
  2
DIMSTYLE
  5
A
330
0
100
AcDbSymbolTable
 70
     1
  0
DIMSTYLE
105
27
330
A
100
AcDbSymbolTableRecord
100
AcDbDimStyleTableRecord
  2
ISO-25
 70
     0
  3

  4

  5

  6

  7

 40
1.0
 41
2.5
 42
0.625
 43
3.75
 44
1.25
 45
0.0
 46
0.0
 47
0.0
 48
0.0
140
2.5
141
2.5
142
0.0
143
0.03937007874016
144
1.0
145
0.0
146
1.0
147
0.625
 71
     0
 72
     0
 73
     0
 74
     0
 75
     0
 76
     0
 77
     1
 78
     8
170
     0
171
     3
172
     1
173
     0
174
     0
175
     0
176
     0
177
     0
178
     0
270
     2
271
     2
272
     2
273
     2
274
     3
340
11
275
     0
280
     0
281
     0
282
     0
283
     0
284
     8
285
     0
286
     0
287
     3
288
     0
  0
ENDTAB
  0
TABLE
  2
BLOCK_RECORD
  5
1
330
0
100
AcDbSymbolTable
 70
     1
  0
BLOCK_RECORD
  5
1F
330
1
100
AcDbSymbolTableRecord
100
AcDbBlockTableRecord
  2
*MODEL_SPACE
  0
BLOCK_RECORD
  5
1B
330
1
100
AcDbSymbolTableRecord
100
AcDbBlockTableRecord
  2
*PAPER_SPACE
  0
ENDTAB
  0
ENDSEC
  0
SECTION
  2
BLOCKS
  0
BLOCK
  5
20
330
1F
100
AcDbEntity
  8
0
100
AcDbBlockBegin
  2
*MODEL_SPACE
 70
     0
 10
0.0
 20
0.0
 30
0.0
  3
*MODEL_SPACE
  1

  0
ENDBLK
  5
21
330
1F
100
AcDbEntity
  8
0
100
AcDbBlockEnd
  0
BLOCK
  5
1C
330
1B
100
AcDbEntity
 67
     1
  8
0
100
AcDbBlockBegin
  2
*PAPER_SPACE
  1

  0
ENDBLK
  5
1D
330
1B
100
AcDbEntity
 67
     1
  8
0
100
AcDbBlockEnd
  0
ENDSEC
  0
SECTION
  2
ENTITIES
  0
SPLINE
  5
100
100
AcDbEntity
  8
Layer_1
 62
7
100
AcDbSpline
 70
8
 71
3
 72
8
 73
4
 74
0
 40
0
 40
0
 40
0
 40
0
 40
1
 40
1
 40
1
 40
1
 10
105.380646
 20
272.741533
 30
0.0
 10
49.269462
 20
272.741316
 30
0.0
 10
3.782414
 20
227.254268
 30
0.0
 10
3.782198
 20
171.143084
 30
0.0
  0
SPLINE
  5
101
100
AcDbEntity
  8
Layer_1
 62
7
100
AcDbSpline
 70
8
 71
3
 72
8
 73
4
 74
0
 40
0
 40
0
 40
0
 40
0
 40
1
 40
1
 40
1
 40
1
 10
3.782198
 20
171.143084
 30
0.0
 10
3.782129
 20
115.031698
 30
0.0
 10
49.269261
 20
69.544336
 30
0.0
 10
105.380646
 20
69.544119
 30
0.0
  0
SPLINE
  5
102
100
AcDbEntity
  8
Layer_1
 62
7
100
AcDbSpline
 70
8
 71
3
 72
8
 73
4
 74
0
 40
0
 40
0
 40
0
 40
0
 40
1
 40
1
 40
1
 40
1
 10
105.380646
 20
69.544119
 30
0.0
 10
132.326377
 20
69.544086
 30
0.0
 10
158.168491
 20
80.248221
 30
0.0
 10
177.222000
 20
99.301730
 30
0.0
  0
SPLINE
  5
103
100
AcDbEntity
  8
Layer_1
 62
7
100
AcDbSpline
 70
8
 71
3
 72
8
 73
4
 74
0
 40
0
 40
0
 40
0
 40
0
 40
1
 40
1
 40
1
 40
1
 10
177.222000
 20
99.301730
 30
0.0
 10
196.275510
 20
118.355239
 30
0.0
 10
206.979646
 20
144.197352
 30
0.0
 10
206.979613
 20
171.143084
 30
0.0
  0
SPLINE
  5
104
100
AcDbEntity
  8
Layer_1
 62
7
100
AcDbSpline
 70
8
 71
3
 72
8
 73
4
 74
0
 40
0
 40
0
 40
0
 40
0
 40
1
 40
1
 40
1
 40
1
 10
206.979613
 20
171.143084
 30
0.0
 10
206.979397
 20
227.254470
 30
0.0
 10
161.492033
 20
272.741603
 30
0.0
 10
105.380646
 20
272.741533
 30
0.0
  0
SPLINE
  5
105
100
AcDbEntity
  8
Layer_1
 62
7
100
AcDbSpline
 70
8
 71
3
 72
8
 73
4
 74
0
 40
0
 40
0
 40
0
 40
0
 40
1
 40
1
 40
1
 40
1
 10
105.381164
 20
236.116894
 30
0.0
 10
97.650788
 20
236.116964
 30
0.0
 10
90.236994
 20
233.923530
 30
0.0
 10
84.770754
 20
230.019128
 30
0.0
  0
SPLINE
  5
106
100
AcDbEntity
  8
Layer_1
 62
7
100
AcDbSpline
 70
8
 71
3
 72
8
 73
4
 74
0
 40
0
 40
0
 40
0
 40
0
 40
1
 40
1
 40
1
 40
1
 10
84.770754
 20
230.019128
 30
0.0
 10
79.304513
 20
226.114726
 30
0.0
 10
76.233600
 20
220.819190
 30
0.0
 10
76.233588
 20
215.297493
 30
0.0
  0
SPLINE
  5
107
100
AcDbEntity
  8
Layer_1
 62
7
100
AcDbSpline
 70
8
 71
3
 72
8
 73
4
 74
0
 40
0
 40
0
 40
0
 40
0
 40
1
 40
1
 40
1
 40
1
 10
76.233588
 20
215.297493
 30
0.0
 10
76.243798
 20
210.067507
 30
0.0
 10
79.009393
 20
205.031841
 30
0.0
 10
83.980403
 20
201.191894
 30
0.0
  0
SPLINE
  5
108
100
AcDbEntity
  8
Layer_1
 62
7
100
AcDbSpline
 70
8
 71
3
 72
8
 73
4
 74
0
 40
0
 40
0
 40
0
 40
0
 40
1
 40
1
 40
1
 40
1
 10
83.980403
 20
201.191894
 30
0.0
 10
90.145120
 20
204.180173
 30
0.0
 10
96.898723
 20
205.947020
 30
0.0
 10
104.003987
 20
206.103741
 30
0.0
  0
SPLINE
  5
109
100
AcDbEntity
  8
Layer_1
 62
7
100
AcDbSpline
 70
8
 71
3
 72
8
 73
4
 74
0
 40
0
 40
0
 40
0
 40
0
 40
1
 40
1
 40
1
 40
1
 10
104.003987
 20
206.103741
 30
0.0
 10
111.932626
 20
206.325779
 30
0.0
 10
119.725206
 20
204.554849
 30
0.0
 10
126.786575
 20
201.204814
 30
0.0
  0
SPLINE
  5
10a
100
AcDbEntity
  8
Layer_1
 62
7
100
AcDbSpline
 70
8
 71
3
 72
8
 73
4
 74
0
 40
0
 40
0
 40
0
 40
0
 40
1
 40
1
 40
1
 40
1
 10
126.786575
 20
201.204814
 30
0.0
 10
131.751475
 20
205.042045
 30
0.0
 10
134.514878
 20
210.072467
 30
0.0
 10
134.528220
 20
215.297493
 30
0.0
  0
SPLINE
  5
10b
100
AcDbEntity
  8
Layer_1
 62
7
100
AcDbSpline
 70
8
 71
3
 72
8
 73
4
 74
0
 40
0
 40
0
 40
0
 40
0
 40
1
 40
1
 40
1
 40
1
 10
134.528220
 20
215.297493
 30
0.0
 10
134.528195
 20
226.795694
 30
0.0
 10
121.478645
 20
236.116834
 30
0.0
 10
105.381164
 20
236.116894
 30
0.0
  0
LWPOLYLINE
  5
10c
100
AcDbEntity
  8
Layer_1
 62
7
100
AcDbPolyline
 90
1
 70
1
 10
105.380646
 20
272.741533
 30
0.0
  0
SPLINE
  5
10d
100
AcDbEntity
  8
Layer_1
 62
7
100
AcDbSpline
 70
8
 71
3
 72
8
 73
4
 74
0
 40
0
 40
0
 40
0
 40
0
 40
1
 40
1
 40
1
 40
1
 10
105.380646
 20
203.704404
 30
0.0
 10
77.210215
 20
203.704162
 30
0.0
 10
54.373626
 20
177.791614
 30
0.0
 10
54.373425
 20
145.826801
 30
0.0
  0
SPLINE
  5
10e
100
AcDbEntity
  8
Layer_1
 62
7
100
AcDbSpline
 70
8
 71
3
 72
8
 73
4
 74
0
 40
0
 40
0
 40
0
 40
0
 40
1
 40
1
 40
1
 40
1
 10
54.373425
 20
145.826801
 30
0.0
 10
54.392073
 20
141.904360
 30
0.0
 10
54.762084
 20
137.994230
 30
0.0
 10
55.477751
 20
134.156713
 30
0.0
  0
SPLINE
  5
10f
100
AcDbEntity
  8
Layer_1
 62
7
100
AcDbSpline
 70
8
 71
3
 72
8
 73
4
 74
0
 40
0
 40
0
 40
0
 40
0
 40
1
 40
1
 40
1
 40
1
 10
55.477751
 20
134.156713
 30
0.0
 10
55.366980
 20
139.100852
 30
0.0
 10
56.705047
 20
144.038072
 30
0.0
 10
59.726586
 20
148.121752
 30
0.0
  0
SPLINE
  5
110
100
AcDbEntity
  8
Layer_1
 62
7
100
AcDbSpline
 70
8
 71
3
 72
8
 73
4
 74
0
 40
0
 40
0
 40
0
 40
0
 40
1
 40
1
 40
1
 40
1
 10
59.726586
 20
148.121752
 30
0.0
 10
69.703214
 20
161.954761
 30
0.0
 10
87.497720
 20
167.369519
 30
0.0
 10
103.867560
 20
167.830109
 30
0.0
  0
SPLINE
  5
111
100
AcDbEntity
  8
Layer_1
 62
7
100
AcDbSpline
 70
8
 71
3
 72
8
 73
4
 74
0
 40
0
 40
0
 40
0
 40
0
 40
1
 40
1
 40
1
 40
1
 10
103.867560
 20
167.830109
 30
0.0
 10
118.510731
 20
168.002987
 30
0.0
 10
134.023897
 20
164.694947
 30
0.0
 10
145.411278
 20
154.967327
 30
0.0
  0
SPLINE
  5
112
100
AcDbEntity
  8
Layer_1
 62
7
100
AcDbSpline
 70
8
 71
3
 72
8
 73
4
 74
0
 40
0
 40
0
 40
0
 40
0
 40
1
 40
1
 40
1
 40
1
 10
145.411278
 20
154.967327
 30
0.0
 10
151.049507
 20
150.798808
 30
0.0
 10
154.835514
 20
144.217055
 30
0.0
 10
155.768784
 20
137.308974
 30
0.0
  0
SPLINE
  5
113
100
AcDbEntity
  8
Layer_1
 62
7
100
AcDbSpline
 70
8
 71
3
 72
8
 73
4
 74
0
 40
0
 40
0
 40
0
 40
0
 40
1
 40
1
 40
1
 40
1
 10
155.768784
 20
137.308974
 30
0.0
 10
156.160040
 20
140.127043
 30
0.0
 10
156.367138
 20
142.974079
 30
0.0
 10
156.388385
 20
145.826801
 30
0.0
  0
SPLINE
  5
114
100
AcDbEntity
  8
Layer_1
 62
7
100
AcDbSpline
 70
8
 71
3
 72
8
 73
4
 74
0
 40
0
 40
0
 40
0
 40
0
 40
1
 40
1
 40
1
 40
1
 10
156.388385
 20
145.826801
 30
0.0
 10
156.388185
 20
177.791844
 30
0.0
 10
133.551279
 20
203.704487
 30
0.0
 10
105.380646
 20
203.704404
 30
0.0
  0
LWPOLYLINE
  5
115
100
AcDbEntity
  8
Layer_1
 62
7
100
AcDbPolyline
 90
1
 70
1
 10
105.381164
 20
236.116894
 30
0.0
  0
SPLINE
  5
116
100
AcDbEntity
  8
Layer_1
 62
7
100
AcDbSpline
 70
8
 71
3
 72
8
 73
4
 74
0
 40
0
 40
0
 40
0
 40
0
 40
1
 40
1
 40
1
 40
1
 10
105.713960
 20
164.564158
 30
0.0
 10
93.234972
 20
164.564156
 30
0.0
 10
81.267097
 20
161.383602
 30
0.0
 10
72.443145
 20
155.722186
 30
0.0
  0
SPLINE
  5
117
100
AcDbEntity
  8
Layer_1
 62
7
100
AcDbSpline
 70
8
 71
3
 72
8
 73
4
 74
0
 40
0
 40
0
 40
0
 40
0
 40
1
 40
1
 40
1
 40
1
 10
72.443145
 20
155.722186
 30
0.0
 10
63.619193
 20
150.060770
 30
0.0
 10
58.661983
 20
142.382248
 30
0.0
 10
58.662051
 20
134.375819
 30
0.0
  0
SPLINE
  5
118
100
AcDbEntity
  8
Layer_1
 62
7
100
AcDbSpline
 70
8
 71
3
 72
8
 73
4
 74
0
 40
0
 40
0
 40
0
 40
0
 40
1
 40
1
 40
1
 40
1
 10
58.662051
 20
134.375819
 30
0.0
 10
58.661984
 20
126.369391
 30
0.0
 10
63.619195
 20
118.690870
 30
0.0
 10
72.443146
 20
113.029454
 30
0.0
  0
SPLINE
  5
119
100
AcDbEntity
  8
Layer_1
 62
7
100
AcDbSpline
 70
8
 71
3
 72
8
 73
4
 74
0
 40
0
 40
0
 40
0
 40
0
 40
1
 40
1
 40
1
 40
1
 10
72.443146
 20
113.029454
 30
0.0
 10
81.267098
 20
107.368039
 30
0.0
 10
93.234973
 20
104.187485
 30
0.0
 10
105.713960
 20
104.187483
 30
0.0
  0
SPLINE
  5
11a
100
AcDbEntity
  8
Layer_1
 62
7
100
AcDbSpline
 70
8
 71
3
 72
8
 73
4
 74
0
 40
0
 40
0
 40
0
 40
0
 40
1
 40
1
 40
1
 40
1
 10
105.713960
 20
104.187483
 30
0.0
 10
118.192946
 20
104.187485
 30
0.0
 10
130.160821
 20
107.368039
 30
0.0
 10
138.984772
 20
113.029455
 30
0.0
  0
SPLINE
  5
11b
100
AcDbEntity
  8
Layer_1
 62
7
100
AcDbSpline
 70
8
 71
3
 72
8
 73
4
 74
0
 40
0
 40
0
 40
0
 40
0
 40
1
 40
1
 40
1
 40
1
 10
138.984772
 20
113.029455
 30
0.0
 10
147.808723
 20
118.690871
 30
0.0
 10
152.765933
 20
126.369391
 30
0.0
 10
152.765867
 20
134.375819
 30
0.0
  0
SPLINE
  5
11c
100
AcDbEntity
  8
Layer_1
 62
7
100
AcDbSpline
 70
8
 71
3
 72
8
 73
4
 74
0
 40
0
 40
0
 40
0
 40
0
 40
1
 40
1
 40
1
 40
1
 10
152.765867
 20
134.375819
 30
0.0
 10
152.765934
 20
142.382248
 30
0.0
 10
147.808725
 20
150.060769
 30
0.0
 10
138.984773
 20
155.722186
 30
0.0
  0
SPLINE
  5
11d
100
AcDbEntity
  8
Layer_1
 62
7
100
AcDbSpline
 70
8
 71
3
 72
8
 73
4
 74
0
 40
0
 40
0
 40
0
 40
0
 40
1
 40
1
 40
1
 40
1
 10
138.984773
 20
155.722186
 30
0.0
 10
130.160822
 20
161.383602
 30
0.0
 10
118.192947
 20
164.564156
 30
0.0
 10
105.713960
 20
164.564158
 30
0.0
  0
LWPOLYLINE
  5
11e
100
AcDbEntity
  8
Layer_1
 62
7
100
AcDbPolyline
 90
1
 70
1
 10
105.380646
 20
203.704404
 30
0.0
  0
SPLINE
  5
11f
100
AcDbEntity
  8
Layer_1
 62
7
100
AcDbSpline
 70
8
 71
3
 72
8
 73
4
 74
0
 40
0
 40
0
 40
0
 40
0
 40
1
 40
1
 40
1
 40
1
 10
42.098726
 20
251.033967
 30
0.0
 10
47.305206
 20
243.324665
 30
0.0
 10
58.124056
 20
225.982590
 30
0.0
 10
58.272936
 20
225.892348
 30
0.0
  0
SPLINE
  5
120
100
AcDbEntity
  8
Layer_1
 62
7
100
AcDbSpline
 70
8
 71
3
 72
8
 73
4
 74
0
 40
0
 40
0
 40
0
 40
0
 40
1
 40
1
 40
1
 40
1
 10
58.272936
 20
225.892348
 30
0.0
 10
58.721376
 20
225.620584
 30
0.0
 10
62.386006
 20
221.937444
 30
0.0
 10
64.496326
 20
219.637435
 30
0.0
  0
SPLINE
  5
121
100
AcDbEntity
  8
Layer_1
 62
7
100
AcDbSpline
 70
8
 71
3
 72
8
 73
4
 74
0
 40
0
 40
0
 40
0
 40
0
 40
1
 40
1
 40
1
 40
1
 10
64.496326
 20
219.637435
 30
0.0
 10
65.596696
 20
218.438122
 30
0.0
 10
65.646846
 20
218.395592
 30
0.0
 10
66.215606
 20
218.196182
 30
0.0
  0
SPLINE
  5
122
100
AcDbEntity
  8
Layer_1
 62
7
100
AcDbSpline
 70
8
 71
3
 72
8
 73
4
 74
0
 40
0
 40
0
 40
0
 40
0
 40
1
 40
1
 40
1
 40
1
 10
66.215606
 20
218.196182
 30
0.0
 10
66.215606
 20
218.196182
 30
0.0
 10
68.037363
 20
216.310192
 30
0.0
 10
69.237123
 20
214.171612
 30
0.0
  0
SPLINE
  5
123
100
AcDbEntity
  8
Layer_1
 62
7
100
AcDbSpline
 70
8
 71
3
 72
8
 73
4
 74
0
 40
0
 40
0
 40
0
 40
0
 40
1
 40
1
 40
1
 40
1
 10
69.237123
 20
214.171612
 30
0.0
 10
72.351873
 20
208.619540
 30
0.0
 10
72.586023
 20
203.945620
 30
0.0
 10
72.486023
 20
198.860400
 30
0.0
  0
SPLINE
  5
124
100
AcDbEntity
  8
Layer_1
 62
7
100
AcDbSpline
 70
8
 71
3
 72
8
 73
4
 74
0
 40
0
 40
0
 40
0
 40
0
 40
1
 40
1
 40
1
 40
1
 10
72.486023
 20
198.860400
 30
0.0
 10
72.447323
 20
196.890860
 30
0.0
 10
72.315373
 20
195.640160
 30
0.0
 10
71.941353
 20
193.682940
 30
0.0
  0
SPLINE
  5
125
100
AcDbEntity
  8
Layer_1
 62
7
100
AcDbSpline
 70
8
 71
3
 72
8
 73
4
 74
0
 40
0
 40
0
 40
0
 40
0
 40
1
 40
1
 40
1
 40
1
 10
71.941353
 20
193.682940
 30
0.0
 10
71.106383
 20
189.313600
 30
0.0
 10
70.004143
 20
186.892840
 30
0.0
 10
65.422886
 20
179.372710
 30
0.0
  0
SPLINE
  5
126
100
AcDbEntity
  8
Layer_1
 62
7
100
AcDbSpline
 70
8
 71
3
 72
8
 73
4
 74
0
 40
0
 40
0
 40
0
 40
0
 40
1
 40
1
 40
1
 40
1
 10
65.422886
 20
179.372710
 30
0.0
 10
60.528576
 20
171.338730
 30
0.0
 10
59.340856
 20
168.882340
 30
0.0
 10
58.070886
 20
164.168470
 30
0.0
  0
SPLINE
  5
127
100
AcDbEntity
  8
Layer_1
 62
7
100
AcDbSpline
 70
8
 71
3
 72
8
 73
4
 74
0
 40
0
 40
0
 40
0
 40
0
 40
1
 40
1
 40
1
 40
1
 10
58.070886
 20
164.168470
 30
0.0
 10
56.880756
 20
159.750950
 30
0.0
 10
56.577586
 20
157.291900
 30
0.0
 10
56.294246
 20
149.750230
 30
0.0
  0
SPLINE
  5
128
100
AcDbEntity
  8
Layer_1
 62
7
100
AcDbSpline
 70
8
 71
3
 72
8
 73
4
 74
0
 40
0
 40
0
 40
0
 40
0
 40
1
 40
1
 40
1
 40
1
 10
56.294246
 20
149.750230
 30
0.0
 10
55.975956
 20
141.278090
 30
0.0
 10
55.752746
 20
139.693890
 30
0.0
 10
54.442686
 20
136.600120
 30
0.0
  0
SPLINE
  5
129
100
AcDbEntity
  8
Layer_1
 62
7
100
AcDbSpline
 70
8
 71
3
 72
8
 73
4
 74
0
 40
0
 40
0
 40
0
 40
0
 40
1
 40
1
 40
1
 40
1
 10
54.442686
 20
136.600120
 30
0.0
 10
53.989936
 20
135.530990
 30
0.0
 10
53.834926
 20
135.264480
 30
0.0
 10
53.101166
 20
134.294840
 30
0.0
  0
SPLINE
  5
12a
100
AcDbEntity
  8
Layer_1
 62
7
100
AcDbSpline
 70
8
 71
3
 72
8
 73
4
 74
0
 40
0
 40
0
 40
0
 40
0
 40
1
 40
1
 40
1
 40
1
 10
53.101166
 20
134.294840
 30
0.0
 10
52.023536
 20
132.870800
 30
0.0
 10
49.846946
 20
130.591590
 30
0.0
 10
49.241966
 20
130.253740
 30
0.0
  0
SPLINE
  5
12b
100
AcDbEntity
  8
Layer_1
 62
7
100
AcDbSpline
 70
8
 71
3
 72
8
 73
4
 74
0
 40
0
 40
0
 40
0
 40
0
 40
1
 40
1
 40
1
 40
1
 10
49.241966
 20
130.253740
 30
0.0
 10
48.340096
 20
129.750120
 30
0.0
 10
47.815606
 20
129.716040
 30
0.0
 10
46.589416
 20
130.080110
 30
0.0
  0
SPLINE
  5
12c
100
AcDbEntity
  8
Layer_1
 62
7
100
AcDbSpline
 70
8
 71
3
 72
8
 73
4
 74
0
 40
0
 40
0
 40
0
 40
0
 40
1
 40
1
 40
1
 40
1
 10
46.589416
 20
130.080110
 30
0.0
 10
46.360946
 20
130.147910
 30
0.0
 10
46.104796
 20
130.131610
 30
0.0
 10
45.959466
 20
130.039810
 30
0.0
  0
SPLINE
  5
12d
100
AcDbEntity
  8
Layer_1
 62
7
100
AcDbSpline
 70
8
 71
3
 72
8
 73
4
 74
0
 40
0
 40
0
 40
0
 40
0
 40
1
 40
1
 40
1
 40
1
 10
45.959466
 20
130.039810
 30
0.0
 10
45.767196
 20
129.918330
 30
0.0
 10
45.674116
 20
129.930730
 30
0.0
 10
45.528486
 20
130.097710
 30
0.0
  0
SPLINE
  5
12e
100
AcDbEntity
  8
Layer_1
 62
7
100
AcDbSpline
 70
8
 71
3
 72
8
 73
4
 74
0
 40
0
 40
0
 40
0
 40
0
 40
1
 40
1
 40
1
 40
1
 10
45.528486
 20
130.097710
 30
0.0
 10
45.425476
 20
130.215870
 30
0.0
 10
45.339696
 20
130.424630
 30
0.0
 10
45.334696
 20
130.567450
 30
0.0
  0
SPLINE
  5
12f
100
AcDbEntity
  8
Layer_1
 62
7
100
AcDbSpline
 70
8
 71
3
 72
8
 73
4
 74
0
 40
0
 40
0
 40
0
 40
0
 40
1
 40
1
 40
1
 40
1
 10
45.334696
 20
130.567450
 30
0.0
 10
45.328696
 20
130.743980
 30
0.0
 10
45.218516
 20
130.971210
 30
0.0
 10
44.982786
 20
131.291950
 30
0.0
  0
SPLINE
  5
130
100
AcDbEntity
  8
Layer_1
 62
7
100
AcDbSpline
 70
8
 71
3
 72
8
 73
4
 74
0
 40
0
 40
0
 40
0
 40
0
 40
1
 40
1
 40
1
 40
1
 10
44.982786
 20
131.291950
 30
0.0
 10
44.529016
 20
131.909430
 30
0.0
 10
44.504536
 20
132.058600
 30
0.0
 10
44.192136
 20
136.097860
 30
0.0
  0
SPLINE
  5
131
100
AcDbEntity
  8
Layer_1
 62
7
100
AcDbSpline
 70
8
 71
3
 72
8
 73
4
 74
0
 40
0
 40
0
 40
0
 40
0
 40
1
 40
1
 40
1
 40
1
 10
44.192136
 20
136.097860
 30
0.0
 10
44.050636
 20
137.927520
 30
0.0
 10
43.850366
 20
140.421420
 30
0.0
 10
43.746686
 20
141.640160
 30
0.0
  0
SPLINE
  5
132
100
AcDbEntity
  8
Layer_1
 62
7
100
AcDbSpline
 70
8
 71
3
 72
8
 73
4
 74
0
 40
0
 40
0
 40
0
 40
0
 40
1
 40
1
 40
1
 40
1
 10
43.746686
 20
141.640160
 30
0.0
 10
43.643026
 20
142.858890
 30
0.0
 10
43.512256
 20
144.893630
 30
0.0
 10
43.456266
 20
146.161840
 30
0.0
  0
SPLINE
  5
133
100
AcDbEntity
  8
Layer_1
 62
7
100
AcDbSpline
 70
8
 71
3
 72
8
 73
4
 74
0
 40
0
 40
0
 40
0
 40
0
 40
1
 40
1
 40
1
 40
1
 10
43.456266
 20
146.161840
 30
0.0
 10
43.258806
 20
150.637500
 30
0.0
 10
42.792656
 20
156.243550
 30
0.0
 10
42.528156
 20
157.323440
 30
0.0
  0
SPLINE
  5
134
100
AcDbEntity
  8
Layer_1
 62
7
100
AcDbSpline
 70
8
 71
3
 72
8
 73
4
 74
0
 40
0
 40
0
 40
0
 40
0
 40
1
 40
1
 40
1
 40
1
 10
42.528156
 20
157.323440
 30
0.0
 10
42.365246
 20
157.988660
 30
0.0
 10
41.898076
 20
158.740670
 30
0.0
 10
41.584536
 20
158.842210
 30
0.0
  0
SPLINE
  5
135
100
AcDbEntity
  8
Layer_1
 62
7
100
AcDbSpline
 70
8
 71
3
 72
8
 73
4
 74
0
 40
0
 40
0
 40
0
 40
0
 40
1
 40
1
 40
1
 40
1
 10
41.584536
 20
158.842210
 30
0.0
 10
41.408896
 20
158.899110
 30
0.0
 10
41.390296
 20
158.829810
 30
0.0
 10
41.320996
 20
157.852600
 30
0.0
  0
SPLINE
  5
136
100
AcDbEntity
  8
Layer_1
 62
7
100
AcDbSpline
 70
8
 71
3
 72
8
 73
4
 74
0
 40
0
 40
0
 40
0
 40
0
 40
1
 40
1
 40
1
 40
1
 10
41.320996
 20
157.852600
 30
0.0
 10
41.080156
 20
154.450160
 30
0.0
 10
41.307996
 20
143.923450
 30
0.0
 10
41.812946
 20
135.133580
 30
0.0
  0
SPLINE
  5
137
100
AcDbEntity
  8
Layer_1
 62
7
100
AcDbSpline
 70
8
 71
3
 72
8
 73
4
 74
0
 40
0
 40
0
 40
0
 40
0
 40
1
 40
1
 40
1
 40
1
 10
41.812946
 20
135.133580
 30
0.0
 10
41.961766
 20
132.543010
 30
0.0
 10
42.194916
 20
131.556780
 30
0.0
 10
42.944146
 20
130.348340
 30
0.0
  0
SPLINE
  5
138
100
AcDbEntity
  8
Layer_1
 62
7
100
AcDbSpline
 70
8
 71
3
 72
8
 73
4
 74
0
 40
0
 40
0
 40
0
 40
0
 40
1
 40
1
 40
1
 40
1
 10
42.944146
 20
130.348340
 30
0.0
 10
43.445006
 20
129.540490
 30
0.0
 10
43.953896
 20
129.054500
 30
0.0
 10
44.795716
 20
128.579970
 30
0.0
  0
SPLINE
  5
139
100
AcDbEntity
  8
Layer_1
 62
7
100
AcDbSpline
 70
8
 71
3
 72
8
 73
4
 74
0
 40
0
 40
0
 40
0
 40
0
 40
1
 40
1
 40
1
 40
1
 10
44.795716
 20
128.579970
 30
0.0
 10
46.079726
 20
127.856210
 30
0.0
 10
48.123456
 20
127.823150
 30
0.0
 10
49.796456
 20
128.498870
 30
0.0
  0
SPLINE
  5
13a
100
AcDbEntity
  8
Layer_1
 62
7
100
AcDbSpline
 70
8
 71
3
 72
8
 73
4
 74
0
 40
0
 40
0
 40
0
 40
0
 40
1
 40
1
 40
1
 40
1
 10
49.796456
 20
128.498870
 30
0.0
 10
50.548766
 20
128.802730
 30
0.0
 10
51.276886
 20
129.330440
 30
0.0
 10
52.210256
 20
130.248630
 30
0.0
  0
LWPOLYLINE
  5
13b
100
AcDbEntity
  8
Layer_1
 62
7
100
AcDbPolyline
 90
1
 70
1
 10
105.713960
 20
164.564158
 30
0.0
  0
SPLINE
  5
13c
100
AcDbEntity
  8
Layer_1
 62
7
100
AcDbSpline
 70
8
 71
3
 72
8
 73
4
 74
0
 40
0
 40
0
 40
0
 40
0
 40
1
 40
1
 40
1
 40
1
 10
53.200896
 20
130.584530
 30
0.0
 10
53.371076
 20
130.400840
 30
0.0
 10
54.457966
 20
128.909690
 30
0.0
 10
55.616766
 20
127.271040
 30
0.0
  0
LWPOLYLINE
  5
13d
100
AcDbEntity
  8
Layer_1
 62
7
100
AcDbPolyline
 90
3
 70
0
 10
52.210256
 20
130.248630
 30
0.0
 10
52.891356
 20
130.918360
 30
0.0
 10
53.200896
 20
130.584530
 30
0.0
  0
SPLINE
  5
13e
100
AcDbEntity
  8
Layer_1
 62
7
100
AcDbSpline
 70
8
 71
3
 72
8
 73
4
 74
0
 40
0
 40
0
 40
0
 40
0
 40
1
 40
1
 40
1
 40
1
 10
59.365896
 20
121.331350
 30
0.0
 10
60.471726
 20
120.142230
 30
0.0
 10
62.038346
 20
118.164950
 30
0.0
 10
63.354286
 20
116.298060
 30
0.0
  0
LWPOLYLINE
  5
13f
100
AcDbEntity
  8
Layer_1
 62
7
100
AcDbPolyline
 90
5
 70
0
 10
55.616766
 20
127.271040
 30
0.0
 10
57.723616
 20
124.291890
 30
0.0
 10
58.100856
 20
123.289370
 30
0.0
 10
58.477576
 20
122.286840
 30
0.0
 10
59.365896
 20
121.331350
 30
0.0
  0
SPLINE
  5
140
100
AcDbEntity
  8
Layer_1
 62
7
100
AcDbSpline
 70
8
 71
3
 72
8
 73
4
 74
0
 40
0
 40
0
 40
0
 40
0
 40
1
 40
1
 40
1
 40
1
 10
67.354036
 20
110.812610
 30
0.0
 10
70.696803
 20
108.542690
 30
0.0
 10
71.698993
 20
107.754040
 30
0.0
 10
74.148960
 20
105.464620
 30
0.0
  0
SPLINE
  5
141
100
AcDbEntity
  8
Layer_1
 62
7
100
AcDbSpline
 70
8
 71
3
 72
8
 73
4
 74
0
 40
0
 40
0
 40
0
 40
0
 40
1
 40
1
 40
1
 40
1
 10
74.148960
 20
105.464620
 30
0.0
 10
75.811290
 20
103.911220
 30
0.0
 10
76.053020
 20
103.633500
 30
0.0
 10
76.529170
 20
102.735070
 30
0.0
  0
SPLINE
  5
142
100
AcDbEntity
  8
Layer_1
 62
7
100
AcDbSpline
 70
8
 71
3
 72
8
 73
4
 74
0
 40
0
 40
0
 40
0
 40
0
 40
1
 40
1
 40
1
 40
1
 10
76.529170
 20
102.735070
 30
0.0
 10
77.612490
 20
100.690830
 30
0.0
 10
77.954650
 20
98.174270
 30
0.0
 10
77.412840
 20
96.232100
 30
0.0
  0
SPLINE
  5
143
100
AcDbEntity
  8
Layer_1
 62
7
100
AcDbSpline
 70
8
 71
3
 72
8
 73
4
 74
0
 40
0
 40
0
 40
0
 40
0
 40
1
 40
1
 40
1
 40
1
 10
77.412840
 20
96.232100
 30
0.0
 10
77.180950
 20
95.400970
 30
0.0
 10
77.152360
 20
95.348890
 30
0.0
 10
76.532270
 20
94.635300
 30
0.0
  0
SPLINE
  5
144
100
AcDbEntity
  8
Layer_1
 62
7
100
AcDbSpline
 70
8
 71
3
 72
8
 73
4
 74
0
 40
0
 40
0
 40
0
 40
0
 40
1
 40
1
 40
1
 40
1
 10
76.532270
 20
94.635300
 30
0.0
 10
75.926280
 20
93.937960
 30
0.0
 10
75.856610
 20
93.886700
 30
0.0
 10
75.264130
 20
93.698930
 30
0.0
  0
SPLINE
  5
145
100
AcDbEntity
  8
Layer_1
 62
7
100
AcDbSpline
 70
8
 71
3
 72
8
 73
4
 74
0
 40
0
 40
0
 40
0
 40
0
 40
1
 40
1
 40
1
 40
1
 10
75.264130
 20
93.698930
 30
0.0
 10
74.278910
 20
93.386630
 30
0.0
 10
73.274300
 20
93.583610
 30
0.0
 10
71.261283
 20
94.483380
 30
0.0
  0
SPLINE
  5
146
100
AcDbEntity
  8
Layer_1
 62
7
100
AcDbSpline
 70
8
 71
3
 72
8
 73
4
 74
0
 40
0
 40
0
 40
0
 40
0
 40
1
 40
1
 40
1
 40
1
 10
71.261283
 20
94.483380
 30
0.0
 10
70.340733
 20
94.894860
 30
0.0
 10
68.936243
 20
95.482500
 30
0.0
 10
68.140033
 20
95.789240
 30
0.0
  0
SPLINE
  5
147
100
AcDbEntity
  8
Layer_1
 62
7
100
AcDbSpline
 70
8
 71
3
 72
8
 73
4
 74
0
 40
0
 40
0
 40
0
 40
0
 40
1
 40
1
 40
1
 40
1
 10
68.140033
 20
95.789240
 30
0.0
 10
65.824176
 20
96.681410
 30
0.0
 10
64.658046
 20
97.296930
 30
0.0
 10
63.004436
 20
98.500180
 30
0.0
  0
SPLINE
  5
148
100
AcDbEntity
  8
Layer_1
 62
7
100
AcDbSpline
 70
8
 71
3
 72
8
 73
4
 74
0
 40
0
 40
0
 40
0
 40
0
 40
1
 40
1
 40
1
 40
1
 10
63.004436
 20
98.500180
 30
0.0
 10
60.914756
 20
100.020730
 30
0.0
 10
59.473316
 20
101.369570
 30
0.0
 10
57.985616
 20
103.196540
 30
0.0
  0
SPLINE
  5
149
100
AcDbEntity
  8
Layer_1
 62
7
100
AcDbSpline
 70
8
 71
3
 72
8
 73
4
 74
0
 40
0
 40
0
 40
0
 40
0
 40
1
 40
1
 40
1
 40
1
 10
57.985616
 20
103.196540
 30
0.0
 10
55.428226
 20
106.337130
 30
0.0
 10
55.508186
 20
106.249310
 30
0.0
 10
54.549136
 20
106.986490
 30
0.0
  0
SPLINE
  5
14a
100
AcDbEntity
  8
Layer_1
 62
7
100
AcDbSpline
 70
8
 71
3
 72
8
 73
4
 74
0
 40
0
 40
0
 40
0
 40
0
 40
1
 40
1
 40
1
 40
1
 10
54.549136
 20
106.986490
 30
0.0
 10
54.043786
 20
107.374920
 30
0.0
 10
52.706716
 20
108.285580
 30
0.0
 10
51.577736
 20
109.010650
 30
0.0
  0
SPLINE
  5
14b
100
AcDbEntity
  8
Layer_1
 62
7
100
AcDbSpline
 70
8
 71
3
 72
8
 73
4
 74
0
 40
0
 40
0
 40
0
 40
0
 40
1
 40
1
 40
1
 40
1
 10
51.577736
 20
109.010650
 30
0.0
 10
47.058976
 20
111.912790
 30
0.0
 10
47.401256
 20
111.588990
 30
0.0
 10
44.521826
 20
115.689830
 30
0.0
  0
SPLINE
  5
14c
100
AcDbEntity
  8
Layer_1
 62
7
100
AcDbSpline
 70
8
 71
3
 72
8
 73
4
 74
0
 40
0
 40
0
 40
0
 40
0
 40
1
 40
1
 40
1
 40
1
 10
44.521826
 20
115.689830
 30
0.0
 10
41.982416
 20
119.306460
 30
0.0
 10
41.636316
 20
119.865130
 30
0.0
 10
38.116536
 20
126.030800
 30
0.0
  0
SPLINE
  5
14d
100
AcDbEntity
  8
Layer_1
 62
7
100
AcDbSpline
 70
8
 71
3
 72
8
 73
4
 74
0
 40
0
 40
0
 40
0
 40
0
 40
1
 40
1
 40
1
 40
1
 10
38.116536
 20
126.030800
 30
0.0
 10
34.346286
 20
132.635250
 30
0.0
 10
33.160886
 20
134.673830
 30
0.0
 10
31.678686
 20
137.101960
 30
0.0
  0
SPLINE
  5
14e
100
AcDbEntity
  8
Layer_1
 62
7
100
AcDbSpline
 70
8
 71
3
 72
8
 73
4
 74
0
 40
0
 40
0
 40
0
 40
0
 40
1
 40
1
 40
1
 40
1
 10
31.678686
 20
137.101960
 30
0.0
 10
29.799906
 20
140.179720
 30
0.0
 10
29.137446
 20
141.410850
 30
0.0
 10
28.641666
 20
142.746580
 30
0.0
  0
SPLINE
  5
14f
100
AcDbEntity
  8
Layer_1
 62
7
100
AcDbSpline
 70
8
 71
3
 72
8
 73
4
 74
0
 40
0
 40
0
 40
0
 40
0
 40
1
 40
1
 40
1
 40
1
 10
28.641666
 20
142.746580
 30
0.0
 10
27.692546
 20
145.303620
 30
0.0
 10
27.222266
 20
148.621890
 30
0.0
 10
27.390576
 20
151.573950
 30
0.0
  0
SPLINE
  5
150
100
AcDbEntity
  8
Layer_1
 62
7
100
AcDbSpline
 70
8
 71
3
 72
8
 73
4
 74
0
 40
0
 40
0
 40
0
 40
0
 40
1
 40
1
 40
1
 40
1
 10
27.390576
 20
151.573950
 30
0.0
 10
27.695006
 20
156.914400
 30
0.0
 10
28.779796
 20
162.075540
 30
0.0
 10
30.777446
 20
167.688730
 30
0.0
  0
SPLINE
  5
151
100
AcDbEntity
  8
Layer_1
 62
7
100
AcDbSpline
 70
8
 71
3
 72
8
 73
4
 74
0
 40
0
 40
0
 40
0
 40
0
 40
1
 40
1
 40
1
 40
1
 10
30.777446
 20
167.688730
 30
0.0
 10
32.336206
 20
172.068690
 30
0.0
 10
34.250096
 20
176.453650
 30
0.0
 10
37.956856
 20
184.137330
 30
0.0
  0
SPLINE
  5
152
100
AcDbEntity
  8
Layer_1
 62
7
100
AcDbSpline
 70
8
 71
3
 72
8
 73
4
 74
0
 40
0
 40
0
 40
0
 40
0
 40
1
 40
1
 40
1
 40
1
 10
37.956856
 20
184.137330
 30
0.0
 10
38.826236
 20
185.939440
 30
0.0
 10
39.664586
 20
187.764560
 30
0.0
 10
39.820306
 20
188.193420
 30
0.0
  0
SPLINE
  5
153
100
AcDbEntity
  8
Layer_1
 62
7
100
AcDbSpline
 70
8
 71
3
 72
8
 73
4
 74
0
 40
0
 40
0
 40
0
 40
0
 40
1
 40
1
 40
1
 40
1
 10
39.820306
 20
188.193420
 30
0.0
 10
40.373676
 20
189.716110
 30
0.0
 10
40.624186
 20
193.106930
 30
0.0
 10
40.364976
 20
195.557310
 30
0.0
  0
SPLINE
  5
154
100
AcDbEntity
  8
Layer_1
 62
7
100
AcDbSpline
 70
8
 71
3
 72
8
 73
4
 74
0
 40
0
 40
0
 40
0
 40
0
 40
1
 40
1
 40
1
 40
1
 10
40.364976
 20
195.557310
 30
0.0
 10
40.244896
 20
196.692280
 30
0.0
 10
39.791376
 20
199.116820
 30
0.0
 10
39.097356
 20
202.337260
 30
0.0
  0
LWPOLYLINE
  5
155
100
AcDbEntity
  8
Layer_1
 62
7
100
AcDbPolyline
 90
5
 70
0
 10
63.354286
 20
116.298060
 30
0.0
 10
64.359906
 20
114.870760
 30
0.0
 10
64.836366
 20
113.534930
 30
0.0
 10
65.312306
 20
112.199090
 30
0.0
 10
67.354036
 20
110.812610
 30
0.0
  0
SPLINE
  5
156
100
AcDbEntity
  8
Layer_1
 62
7
100
AcDbSpline
 70
8
 71
3
 72
8
 73
4
 74
0
 40
0
 40
0
 40
0
 40
0
 40
1
 40
1
 40
1
 40
1
 10
17.107486
 20
222.414585
 30
0.0
 10
23.564106
 20
233.441032
 30
0.0
 10
32.042746
 20
243.150581
 30
0.0
 10
42.098726
 20
251.033967
 30
0.0
  0
LWPOLYLINE
  5
157
100
AcDbEntity
  8
Layer_1
 62
7
100
AcDbPolyline
 90
4
 70
0
 10
39.097356
 20
202.337260
 30
0.0
 10
39.097866
 20
202.337260
 30
0.0
 10
38.641566
 20
204.453400
 30
0.0
 10
17.107486
 20
222.414585
 30
0.0
  0
SPLINE
  5
158
100
AcDbEntity
  8
Layer_1
 62
7
100
AcDbSpline
 70
8
 71
3
 72
8
 73
4
 74
0
 40
0
 40
0
 40
0
 40
0
 40
1
 40
1
 40
1
 40
1
 10
64.166636
 20
119.564470
 30
0.0
 10
64.368406
 20
119.565280
 30
0.0
 10
65.606096
 20
119.039720
 30
0.0
 10
67.557646
 20
118.122700
 30
0.0
  0
SPLINE
  5
159
100
AcDbEntity
  8
Layer_1
 62
7
100
AcDbSpline
 70
8
 71
3
 72
8
 73
4
 74
0
 40
0
 40
0
 40
0
 40
0
 40
1
 40
1
 40
1
 40
1
 10
67.557646
 20
118.122700
 30
0.0
 10
71.279453
 20
116.373850
 30
0.0
 10
72.983233
 20
115.380120
 30
0.0
 10
75.208320
 20
113.661470
 30
0.0
  0
LWPOLYLINE
  5
15a
100
AcDbEntity
  8
Layer_1
 62
7
100
AcDbPolyline
 90
1
 70
1
 10
42.098726
 20
251.033967
 30
0.0
  0
SPLINE
  5
15b
100
AcDbEntity
  8
Layer_1
 62
7
100
AcDbSpline
 70
8
 71
3
 72
8
 73
4
 74
0
 40
0
 40
0
 40
0
 40
0
 40
1
 40
1
 40
1
 40
1
 10
78.866490
 20
112.350960
 30
0.0
 10
83.107320
 20
111.771740
 30
0.0
 10
85.200563
 20
111.075390
 30
0.0
 10
87.343953
 20
109.530980
 30
0.0
  0
SPLINE
  5
15c
100
AcDbEntity
  8
Layer_1
 62
7
100
AcDbSpline
 70
8
 71
3
 72
8
 73
4
 74
0
 40
0
 40
0
 40
0
 40
0
 40
1
 40
1
 40
1
 40
1
 10
87.343953
 20
109.530980
 30
0.0
 10
88.077153
 20
109.002690
 30
0.0
 10
88.088683
 20
108.989120
 30
0.0
 10
89.356233
 20
107.246360
 30
0.0
  0
LWPOLYLINE
  5
15d
100
AcDbEntity
  8
Layer_1
 62
7
100
AcDbPolyline
 90
3
 70
0
 10
75.208320
 20
113.661470
 30
0.0
 10
76.484210
 20
112.676000
 30
0.0
 10
78.866490
 20
112.350960
 30
0.0
  0
SPLINE
  5
15e
100
AcDbEntity
  8
Layer_1
 62
7
100
AcDbSpline
 70
8
 71
3
 72
8
 73
4
 74
0
 40
0
 40
0
 40
0
 40
0
 40
1
 40
1
 40
1
 40
1
 10
90.756653
 20
104.799480
 30
0.0
 10
90.840953
 20
104.333610
 30
0.0
 10
90.843853
 20
103.908910
 30
0.0
 10
90.764653
 20
103.505500
 30
0.0
  0
SPLINE
  5
15f
100
AcDbEntity
  8
Layer_1
 62
7
100
AcDbSpline
 70
8
 71
3
 72
8
 73
4
 74
0
 40
0
 40
0
 40
0
 40
0
 40
1
 40
1
 40
1
 40
1
 10
90.764653
 20
103.505500
 30
0.0
 10
90.659533
 20
102.967790
 30
0.0
 10
90.598243
 20
102.849920
 30
0.0
 10
90.181733
 20
102.384130
 30
0.0
  0
SPLINE
  5
160
100
AcDbEntity
  8
Layer_1
 62
7
100
AcDbSpline
 70
8
 71
3
 72
8
 73
4
 74
0
 40
0
 40
0
 40
0
 40
0
 40
1
 40
1
 40
1
 40
1
 10
90.181733
 20
102.384130
 30
0.0
 10
89.683913
 20
101.827380
 30
0.0
 10
89.002213
 20
101.445360
 30
0.0
 10
87.932803
 20
101.124250
 30
0.0
  0
SPLINE
  5
161
100
AcDbEntity
  8
Layer_1
 62
7
100
AcDbSpline
 70
8
 71
3
 72
8
 73
4
 74
0
 40
0
 40
0
 40
0
 40
0
 40
1
 40
1
 40
1
 40
1
 10
87.932803
 20
101.124250
 30
0.0
 10
86.326253
 20
100.641850
 30
0.0
 10
82.108960
 20
100.481890
 30
0.0
 10
79.660990
 20
100.810060
 30
0.0
  0
LWPOLYLINE
  5
162
100
AcDbEntity
  8
Layer_1
 62
7
100
AcDbPolyline
 90
3
 70
0
 10
89.356233
 20
107.246360
 30
0.0
 10
90.631593
 20
105.493500
 30
0.0
 10
90.756653
 20
104.799480
 30
0.0
  0
SPLINE
  5
163
100
AcDbEntity
  8
Layer_1
 62
7
100
AcDbSpline
 70
8
 71
3
 72
8
 73
4
 74
0
 40
0
 40
0
 40
0
 40
0
 40
1
 40
1
 40
1
 40
1
 10
78.701900
 20
101.828600
 30
0.0
 10
78.523440
 20
104.174650
 30
0.0
 10
77.934380
 20
105.506190
 30
0.0
 10
76.460180
 20
106.897540
 30
0.0
  0
SPLINE
  5
164
100
AcDbEntity
  8
Layer_1
 62
7
100
AcDbSpline
 70
8
 71
3
 72
8
 73
4
 74
0
 40
0
 40
0
 40
0
 40
0
 40
1
 40
1
 40
1
 40
1
 10
76.460180
 20
106.897540
 30
0.0
 10
74.887690
 20
108.381670
 30
0.0
 10
72.318273
 20
110.271340
 30
0.0
 10
68.898903
 20
112.458450
 30
0.0
  0
LWPOLYLINE
  5
165
100
AcDbEntity
  8
Layer_1
 62
7
100
AcDbPolyline
 90
3
 70
0
 10
79.660990
 20
100.810060
 30
0.0
 10
78.770100
 20
100.929430
 30
0.0
 10
78.701900
 20
101.828600
 30
0.0
  0
SPLINE
  5
166
100
AcDbEntity
  8
Layer_1
 62
7
100
AcDbSpline
 70
8
 71
3
 72
8
 73
4
 74
0
 40
0
 40
0
 40
0
 40
0
 40
1
 40
1
 40
1
 40
1
 10
65.651556
 20
116.082510
 30
0.0
 10
65.066836
 20
117.307380
 30
0.0
 10
64.477746
 20
118.578780
 30
0.0
 10
64.342076
 20
118.907660
 30
0.0
  0
SPLINE
  5
167
100
AcDbEntity
  8
Layer_1
 62
7
100
AcDbSpline
 70
8
 71
3
 72
8
 73
4
 74
0
 40
0
 40
0
 40
0
 40
0
 40
1
 40
1
 40
1
 40
1
 10
64.342076
 20
118.907660
 30
0.0
 10
64.206496
 20
119.236530
 30
0.0
 10
64.115316
 20
119.528840
 30
0.0
 10
64.140016
 20
119.557240
 30
0.0
  0
SPLINE
  5
168
100
AcDbEntity
  8
Layer_1
 62
7
100
AcDbSpline
 70
8
 71
3
 72
8
 73
4
 74
0
 40
0
 40
0
 40
0
 40
0
 40
1
 40
1
 40
1
 40
1
 10
64.140016
 20
119.557240
 30
0.0
 10
64.144016
 20
119.562240
 30
0.0
 10
64.152916
 20
119.564240
 30
0.0
 10
64.166416
 20
119.564240
 30
0.0
  0
LWPOLYLINE
  5
169
100
AcDbEntity
  8
Layer_1
 62
7
100
AcDbPolyline
 90
3
 70
0
 10
68.898903
 20
112.458450
 30
0.0
 10
66.715056
 20
113.855780
 30
0.0
 10
65.651556
 20
116.082510
 30
0.0
  0
SPLINE
  5
16a
100
AcDbEntity
  8
Layer_1
 62
7
100
AcDbSpline
 70
8
 71
3
 72
8
 73
4
 74
0
 40
0
 40
0
 40
0
 40
0
 40
1
 40
1
 40
1
 40
1
 10
168.489140
 20
251.033967
 30
0.0
 10
163.282660
 20
243.324665
 30
0.0
 10
152.463820
 20
225.982590
 30
0.0
 10
152.314940
 20
225.892348
 30
0.0
  0
SPLINE
  5
16b
100
AcDbEntity
  8
Layer_1
 62
7
100
AcDbSpline
 70
8
 71
3
 72
8
 73
4
 74
0
 40
0
 40
0
 40
0
 40
0
 40
1
 40
1
 40
1
 40
1
 10
152.314940
 20
225.892348
 30
0.0
 10
151.866500
 20
225.620584
 30
0.0
 10
148.201870
 20
221.937444
 30
0.0
 10
146.091550
 20
219.637435
 30
0.0
  0
SPLINE
  5
16c
100
AcDbEntity
  8
Layer_1
 62
7
100
AcDbSpline
 70
8
 71
3
 72
8
 73
4
 74
0
 40
0
 40
0
 40
0
 40
0
 40
1
 40
1
 40
1
 40
1
 10
146.091550
 20
219.637435
 30
0.0
 10
144.991180
 20
218.438122
 30
0.0
 10
144.941030
 20
218.395592
 30
0.0
 10
144.372270
 20
218.196182
 30
0.0
  0
SPLINE
  5
16d
100
AcDbEntity
  8
Layer_1
 62
7
100
AcDbSpline
 70
8
 71
3
 72
8
 73
4
 74
0
 40
0
 40
0
 40
0
 40
0
 40
1
 40
1
 40
1
 40
1
 10
144.372270
 20
218.196182
 30
0.0
 10
144.372270
 20
218.196182
 30
0.0
 10
142.550510
 20
216.310192
 30
0.0
 10
141.350750
 20
214.171612
 30
0.0
  0
SPLINE
  5
16e
100
AcDbEntity
  8
Layer_1
 62
7
100
AcDbSpline
 70
8
 71
3
 72
8
 73
4
 74
0
 40
0
 40
0
 40
0
 40
0
 40
1
 40
1
 40
1
 40
1
 10
141.350750
 20
214.171612
 30
0.0
 10
138.236000
 20
208.619540
 30
0.0
 10
138.001850
 20
203.945620
 30
0.0
 10
138.101850
 20
198.860400
 30
0.0
  0
SPLINE
  5
16f
100
AcDbEntity
  8
Layer_1
 62
7
100
AcDbSpline
 70
8
 71
3
 72
8
 73
4
 74
0
 40
0
 40
0
 40
0
 40
0
 40
1
 40
1
 40
1
 40
1
 10
138.101850
 20
198.860400
 30
0.0
 10
138.140550
 20
196.890860
 30
0.0
 10
138.272500
 20
195.640160
 30
0.0
 10
138.646520
 20
193.682940
 30
0.0
  0
SPLINE
  5
170
100
AcDbEntity
  8
Layer_1
 62
7
100
AcDbSpline
 70
8
 71
3
 72
8
 73
4
 74
0
 40
0
 40
0
 40
0
 40
0
 40
1
 40
1
 40
1
 40
1
 10
138.646520
 20
193.682940
 30
0.0
 10
139.481490
 20
189.313600
 30
0.0
 10
140.583730
 20
186.892840
 30
0.0
 10
145.164990
 20
179.372710
 30
0.0
  0
SPLINE
  5
171
100
AcDbEntity
  8
Layer_1
 62
7
100
AcDbSpline
 70
8
 71
3
 72
8
 73
4
 74
0
 40
0
 40
0
 40
0
 40
0
 40
1
 40
1
 40
1
 40
1
 10
145.164990
 20
179.372710
 30
0.0
 10
150.059300
 20
171.338730
 30
0.0
 10
151.247020
 20
168.882340
 30
0.0
 10
152.516990
 20
164.168470
 30
0.0
  0
SPLINE
  5
172
100
AcDbEntity
  8
Layer_1
 62
7
100
AcDbSpline
 70
8
 71
3
 72
8
 73
4
 74
0
 40
0
 40
0
 40
0
 40
0
 40
1
 40
1
 40
1
 40
1
 10
152.516990
 20
164.168470
 30
0.0
 10
153.707120
 20
159.750950
 30
0.0
 10
154.010290
 20
157.291900
 30
0.0
 10
154.293630
 20
149.750230
 30
0.0
  0
SPLINE
  5
173
100
AcDbEntity
  8
Layer_1
 62
7
100
AcDbSpline
 70
8
 71
3
 72
8
 73
4
 74
0
 40
0
 40
0
 40
0
 40
0
 40
1
 40
1
 40
1
 40
1
 10
154.293630
 20
149.750230
 30
0.0
 10
154.611910
 20
141.278090
 30
0.0
 10
154.835120
 20
139.693890
 30
0.0
 10
156.145180
 20
136.600120
 30
0.0
  0
SPLINE
  5
174
100
AcDbEntity
  8
Layer_1
 62
7
100
AcDbSpline
 70
8
 71
3
 72
8
 73
4
 74
0
 40
0
 40
0
 40
0
 40
0
 40
1
 40
1
 40
1
 40
1
 10
156.145180
 20
136.600120
 30
0.0
 10
156.597930
 20
135.530990
 30
0.0
 10
156.752940
 20
135.264480
 30
0.0
 10
157.486700
 20
134.294840
 30
0.0
  0
SPLINE
  5
175
100
AcDbEntity
  8
Layer_1
 62
7
100
AcDbSpline
 70
8
 71
3
 72
8
 73
4
 74
0
 40
0
 40
0
 40
0
 40
0
 40
1
 40
1
 40
1
 40
1
 10
157.486700
 20
134.294840
 30
0.0
 10
158.564330
 20
132.870800
 30
0.0
 10
160.740920
 20
130.591590
 30
0.0
 10
161.345900
 20
130.253740
 30
0.0
  0
SPLINE
  5
176
100
AcDbEntity
  8
Layer_1
 62
7
100
AcDbSpline
 70
8
 71
3
 72
8
 73
4
 74
0
 40
0
 40
0
 40
0
 40
0
 40
1
 40
1
 40
1
 40
1
 10
161.345900
 20
130.253740
 30
0.0
 10
162.247770
 20
129.750120
 30
0.0
 10
162.772260
 20
129.716040
 30
0.0
 10
163.998450
 20
130.080110
 30
0.0
  0
SPLINE
  5
177
100
AcDbEntity
  8
Layer_1
 62
7
100
AcDbSpline
 70
8
 71
3
 72
8
 73
4
 74
0
 40
0
 40
0
 40
0
 40
0
 40
1
 40
1
 40
1
 40
1
 10
163.998450
 20
130.080110
 30
0.0
 10
164.226910
 20
130.147910
 30
0.0
 10
164.483060
 20
130.131610
 30
0.0
 10
164.628390
 20
130.039810
 30
0.0
  0
SPLINE
  5
178
100
AcDbEntity
  8
Layer_1
 62
7
100
AcDbSpline
 70
8
 71
3
 72
8
 73
4
 74
0
 40
0
 40
0
 40
0
 40
0
 40
1
 40
1
 40
1
 40
1
 10
164.628390
 20
130.039810
 30
0.0
 10
164.820660
 20
129.918330
 30
0.0
 10
164.913750
 20
129.930730
 30
0.0
 10
165.059380
 20
130.097710
 30
0.0
  0
SPLINE
  5
179
100
AcDbEntity
  8
Layer_1
 62
7
100
AcDbSpline
 70
8
 71
3
 72
8
 73
4
 74
0
 40
0
 40
0
 40
0
 40
0
 40
1
 40
1
 40
1
 40
1
 10
165.059380
 20
130.097710
 30
0.0
 10
165.162390
 20
130.215870
 30
0.0
 10
165.248170
 20
130.424630
 30
0.0
 10
165.253170
 20
130.567450
 30
0.0
  0
SPLINE
  5
17a
100
AcDbEntity
  8
Layer_1
 62
7
100
AcDbSpline
 70
8
 71
3
 72
8
 73
4
 74
0
 40
0
 40
0
 40
0
 40
0
 40
1
 40
1
 40
1
 40
1
 10
165.253170
 20
130.567450
 30
0.0
 10
165.259170
 20
130.743980
 30
0.0
 10
165.369350
 20
130.971210
 30
0.0
 10
165.605080
 20
131.291950
 30
0.0
  0
SPLINE
  5
17b
100
AcDbEntity
  8
Layer_1
 62
7
100
AcDbSpline
 70
8
 71
3
 72
8
 73
4
 74
0
 40
0
 40
0
 40
0
 40
0
 40
1
 40
1
 40
1
 40
1
 10
165.605080
 20
131.291950
 30
0.0
 10
166.058850
 20
131.909430
 30
0.0
 10
166.083330
 20
132.058600
 30
0.0
 10
166.395730
 20
136.097860
 30
0.0
  0
SPLINE
  5
17c
100
AcDbEntity
  8
Layer_1
 62
7
100
AcDbSpline
 70
8
 71
3
 72
8
 73
4
 74
0
 40
0
 40
0
 40
0
 40
0
 40
1
 40
1
 40
1
 40
1
 10
166.395730
 20
136.097860
 30
0.0
 10
166.537230
 20
137.927520
 30
0.0
 10
166.737500
 20
140.421420
 30
0.0
 10
166.841180
 20
141.640160
 30
0.0
  0
SPLINE
  5
17d
100
AcDbEntity
  8
Layer_1
 62
7
100
AcDbSpline
 70
8
 71
3
 72
8
 73
4
 74
0
 40
0
 40
0
 40
0
 40
0
 40
1
 40
1
 40
1
 40
1
 10
166.841180
 20
141.640160
 30
0.0
 10
166.944840
 20
142.858890
 30
0.0
 10
167.075610
 20
144.893630
 30
0.0
 10
167.131600
 20
146.161840
 30
0.0
  0
SPLINE
  5
17e
100
AcDbEntity
  8
Layer_1
 62
7
100
AcDbSpline
 70
8
 71
3
 72
8
 73
4
 74
0
 40
0
 40
0
 40
0
 40
0
 40
1
 40
1
 40
1
 40
1
 10
167.131600
 20
146.161840
 30
0.0
 10
167.329060
 20
150.637500
 30
0.0
 10
167.795210
 20
156.243550
 30
0.0
 10
168.059710
 20
157.323440
 30
0.0
  0
SPLINE
  5
17f
100
AcDbEntity
  8
Layer_1
 62
7
100
AcDbSpline
 70
8
 71
3
 72
8
 73
4
 74
0
 40
0
 40
0
 40
0
 40
0
 40
1
 40
1
 40
1
 40
1
 10
168.059710
 20
157.323440
 30
0.0
 10
168.222620
 20
157.988660
 30
0.0
 10
168.689790
 20
158.740670
 30
0.0
 10
169.003330
 20
158.842210
 30
0.0
  0
SPLINE
  5
180
100
AcDbEntity
  8
Layer_1
 62
7
100
AcDbSpline
 70
8
 71
3
 72
8
 73
4
 74
0
 40
0
 40
0
 40
0
 40
0
 40
1
 40
1
 40
1
 40
1
 10
169.003330
 20
158.842210
 30
0.0
 10
169.178970
 20
158.899110
 30
0.0
 10
169.197570
 20
158.829810
 30
0.0
 10
169.266870
 20
157.852600
 30
0.0
  0
SPLINE
  5
181
100
AcDbEntity
  8
Layer_1
 62
7
100
AcDbSpline
 70
8
 71
3
 72
8
 73
4
 74
0
 40
0
 40
0
 40
0
 40
0
 40
1
 40
1
 40
1
 40
1
 10
169.266870
 20
157.852600
 30
0.0
 10
169.507710
 20
154.450160
 30
0.0
 10
169.279870
 20
143.923450
 30
0.0
 10
168.774920
 20
135.133580
 30
0.0
  0
SPLINE
  5
182
100
AcDbEntity
  8
Layer_1
 62
7
100
AcDbSpline
 70
8
 71
3
 72
8
 73
4
 74
0
 40
0
 40
0
 40
0
 40
0
 40
1
 40
1
 40
1
 40
1
 10
168.774920
 20
135.133580
 30
0.0
 10
168.626100
 20
132.543010
 30
0.0
 10
168.392950
 20
131.556780
 30
0.0
 10
167.643720
 20
130.348340
 30
0.0
  0
SPLINE
  5
183
100
AcDbEntity
  8
Layer_1
 62
7
100
AcDbSpline
 70
8
 71
3
 72
8
 73
4
 74
0
 40
0
 40
0
 40
0
 40
0
 40
1
 40
1
 40
1
 40
1
 10
167.643720
 20
130.348340
 30
0.0
 10
167.142860
 20
129.540490
 30
0.0
 10
166.633970
 20
129.054500
 30
0.0
 10
165.792150
 20
128.579970
 30
0.0
  0
SPLINE
  5
184
100
AcDbEntity
  8
Layer_1
 62
7
100
AcDbSpline
 70
8
 71
3
 72
8
 73
4
 74
0
 40
0
 40
0
 40
0
 40
0
 40
1
 40
1
 40
1
 40
1
 10
165.792150
 20
128.579970
 30
0.0
 10
164.508130
 20
127.856210
 30
0.0
 10
162.464410
 20
127.823150
 30
0.0
 10
160.791410
 20
128.498870
 30
0.0
  0
SPLINE
  5
185
100
AcDbEntity
  8
Layer_1
 62
7
100
AcDbSpline
 70
8
 71
3
 72
8
 73
4
 74
0
 40
0
 40
0
 40
0
 40
0
 40
1
 40
1
 40
1
 40
1
 10
160.791410
 20
128.498870
 30
0.0
 10
160.039100
 20
128.802730
 30
0.0
 10
159.310980
 20
129.330440
 30
0.0
 10
158.377610
 20
130.248630
 30
0.0
  0
LWPOLYLINE
  5
186
100
AcDbEntity
  8
Layer_1
 62
7
100
AcDbPolyline
 90
2
 70
0
 10
64.166416
 20
119.564240
 30
0.0
 10
64.166636
 20
119.564470
 30
0.0
  0
SPLINE
  5
187
100
AcDbEntity
  8
Layer_1
 62
7
100
AcDbSpline
 70
8
 71
3
 72
8
 73
4
 74
0
 40
0
 40
0
 40
0
 40
0
 40
1
 40
1
 40
1
 40
1
 10
157.386970
 20
130.584530
 30
0.0
 10
157.216790
 20
130.400840
 30
0.0
 10
156.129900
 20
128.909690
 30
0.0
 10
154.971100
 20
127.271040
 30
0.0
  0
LWPOLYLINE
  5
188
100
AcDbEntity
  8
Layer_1
 62
7
100
AcDbPolyline
 90
3
 70
0
 10
158.377610
 20
130.248630
 30
0.0
 10
157.696510
 20
130.918360
 30
0.0
 10
157.386970
 20
130.584530
 30
0.0
  0
SPLINE
  5
189
100
AcDbEntity
  8
Layer_1
 62
7
100
AcDbSpline
 70
8
 71
3
 72
8
 73
4
 74
0
 40
0
 40
0
 40
0
 40
0
 40
1
 40
1
 40
1
 40
1
 10
151.221980
 20
121.331350
 30
0.0
 10
150.116150
 20
120.142230
 30
0.0
 10
148.549530
 20
118.164950
 30
0.0
 10
147.233590
 20
116.298060
 30
0.0
  0
LWPOLYLINE
  5
18a
100
AcDbEntity
  8
Layer_1
 62
7
100
AcDbPolyline
 90
5
 70
0
 10
154.971100
 20
127.271040
 30
0.0
 10
152.864260
 20
124.291890
 30
0.0
 10
152.487020
 20
123.289370
 30
0.0
 10
152.110300
 20
122.286840
 30
0.0
 10
151.221980
 20
121.331350
 30
0.0
  0
SPLINE
  5
18b
100
AcDbEntity
  8
Layer_1
 62
7
100
AcDbSpline
 70
8
 71
3
 72
8
 73
4
 74
0
 40
0
 40
0
 40
0
 40
0
 40
1
 40
1
 40
1
 40
1
 10
143.233840
 20
110.812610
 30
0.0
 10
139.891070
 20
108.542690
 30
0.0
 10
138.888880
 20
107.754040
 30
0.0
 10
136.438910
 20
105.464620
 30
0.0
  0
SPLINE
  5
18c
100
AcDbEntity
  8
Layer_1
 62
7
100
AcDbSpline
 70
8
 71
3
 72
8
 73
4
 74
0
 40
0
 40
0
 40
0
 40
0
 40
1
 40
1
 40
1
 40
1
 10
136.438910
 20
105.464620
 30
0.0
 10
134.776580
 20
103.911220
 30
0.0
 10
134.534850
 20
103.633500
 30
0.0
 10
134.058700
 20
102.735070
 30
0.0
  0
SPLINE
  5
18d
100
AcDbEntity
  8
Layer_1
 62
7
100
AcDbSpline
 70
8
 71
3
 72
8
 73
4
 74
0
 40
0
 40
0
 40
0
 40
0
 40
1
 40
1
 40
1
 40
1
 10
134.058700
 20
102.735070
 30
0.0
 10
132.975380
 20
100.690830
 30
0.0
 10
132.633220
 20
98.174270
 30
0.0
 10
133.175030
 20
96.232100
 30
0.0
  0
SPLINE
  5
18e
100
AcDbEntity
  8
Layer_1
 62
7
100
AcDbSpline
 70
8
 71
3
 72
8
 73
4
 74
0
 40
0
 40
0
 40
0
 40
0
 40
1
 40
1
 40
1
 40
1
 10
133.175030
 20
96.232100
 30
0.0
 10
133.406920
 20
95.400970
 30
0.0
 10
133.435510
 20
95.348890
 30
0.0
 10
134.055600
 20
94.635300
 30
0.0
  0
SPLINE
  5
18f
100
AcDbEntity
  8
Layer_1
 62
7
100
AcDbSpline
 70
8
 71
3
 72
8
 73
4
 74
0
 40
0
 40
0
 40
0
 40
0
 40
1
 40
1
 40
1
 40
1
 10
134.055600
 20
94.635300
 30
0.0
 10
134.661590
 20
93.937960
 30
0.0
 10
134.731260
 20
93.886700
 30
0.0
 10
135.323740
 20
93.698930
 30
0.0
  0
SPLINE
  5
190
100
AcDbEntity
  8
Layer_1
 62
7
100
AcDbSpline
 70
8
 71
3
 72
8
 73
4
 74
0
 40
0
 40
0
 40
0
 40
0
 40
1
 40
1
 40
1
 40
1
 10
135.323740
 20
93.698930
 30
0.0
 10
136.308960
 20
93.386630
 30
0.0
 10
137.313570
 20
93.583610
 30
0.0
 10
139.326590
 20
94.483380
 30
0.0
  0
SPLINE
  5
191
100
AcDbEntity
  8
Layer_1
 62
7
100
AcDbSpline
 70
8
 71
3
 72
8
 73
4
 74
0
 40
0
 40
0
 40
0
 40
0
 40
1
 40
1
 40
1
 40
1
 10
139.326590
 20
94.483380
 30
0.0
 10
140.247140
 20
94.894860
 30
0.0
 10
141.651630
 20
95.482500
 30
0.0
 10
142.447840
 20
95.789240
 30
0.0
  0
SPLINE
  5
192
100
AcDbEntity
  8
Layer_1
 62
7
100
AcDbSpline
 70
8
 71
3
 72
8
 73
4
 74
0
 40
0
 40
0
 40
0
 40
0
 40
1
 40
1
 40
1
 40
1
 10
142.447840
 20
95.789240
 30
0.0
 10
144.763700
 20
96.681410
 30
0.0
 10
145.929830
 20
97.296930
 30
0.0
 10
147.583440
 20
98.500180
 30
0.0
  0
SPLINE
  5
193
100
AcDbEntity
  8
Layer_1
 62
7
100
AcDbSpline
 70
8
 71
3
 72
8
 73
4
 74
0
 40
0
 40
0
 40
0
 40
0
 40
1
 40
1
 40
1
 40
1
 10
147.583440
 20
98.500180
 30
0.0
 10
149.673120
 20
100.020730
 30
0.0
 10
151.114560
 20
101.369570
 30
0.0
 10
152.602260
 20
103.196540
 30
0.0
  0
SPLINE
  5
194
100
AcDbEntity
  8
Layer_1
 62
7
100
AcDbSpline
 70
8
 71
3
 72
8
 73
4
 74
0
 40
0
 40
0
 40
0
 40
0
 40
1
 40
1
 40
1
 40
1
 10
152.602260
 20
103.196540
 30
0.0
 10
155.159640
 20
106.337130
 30
0.0
 10
155.079680
 20
106.249310
 30
0.0
 10
156.038730
 20
106.986490
 30
0.0
  0
SPLINE
  5
195
100
AcDbEntity
  8
Layer_1
 62
7
100
AcDbSpline
 70
8
 71
3
 72
8
 73
4
 74
0
 40
0
 40
0
 40
0
 40
0
 40
1
 40
1
 40
1
 40
1
 10
156.038730
 20
106.986490
 30
0.0
 10
156.544080
 20
107.374920
 30
0.0
 10
157.881150
 20
108.285580
 30
0.0
 10
159.010130
 20
109.010650
 30
0.0
  0
SPLINE
  5
196
100
AcDbEntity
  8
Layer_1
 62
7
100
AcDbSpline
 70
8
 71
3
 72
8
 73
4
 74
0
 40
0
 40
0
 40
0
 40
0
 40
1
 40
1
 40
1
 40
1
 10
159.010130
 20
109.010650
 30
0.0
 10
163.528890
 20
111.912790
 30
0.0
 10
163.186610
 20
111.588990
 30
0.0
 10
166.066040
 20
115.689830
 30
0.0
  0
SPLINE
  5
197
100
AcDbEntity
  8
Layer_1
 62
7
100
AcDbSpline
 70
8
 71
3
 72
8
 73
4
 74
0
 40
0
 40
0
 40
0
 40
0
 40
1
 40
1
 40
1
 40
1
 10
166.066040
 20
115.689830
 30
0.0
 10
168.605450
 20
119.306460
 30
0.0
 10
168.951550
 20
119.865130
 30
0.0
 10
172.471320
 20
126.030800
 30
0.0
  0
SPLINE
  5
198
100
AcDbEntity
  8
Layer_1
 62
7
100
AcDbSpline
 70
8
 71
3
 72
8
 73
4
 74
0
 40
0
 40
0
 40
0
 40
0
 40
1
 40
1
 40
1
 40
1
 10
172.471320
 20
126.030800
 30
0.0
 10
176.241570
 20
132.635250
 30
0.0
 10
177.426970
 20
134.673830
 30
0.0
 10
178.909170
 20
137.101960
 30
0.0
  0
SPLINE
  5
199
100
AcDbEntity
  8
Layer_1
 62
7
100
AcDbSpline
 70
8
 71
3
 72
8
 73
4
 74
0
 40
0
 40
0
 40
0
 40
0
 40
1
 40
1
 40
1
 40
1
 10
178.909170
 20
137.101960
 30
0.0
 10
180.787950
 20
140.179720
 30
0.0
 10
181.450410
 20
141.410850
 30
0.0
 10
181.946190
 20
142.746580
 30
0.0
  0
SPLINE
  5
19a
100
AcDbEntity
  8
Layer_1
 62
7
100
AcDbSpline
 70
8
 71
3
 72
8
 73
4
 74
0
 40
0
 40
0
 40
0
 40
0
 40
1
 40
1
 40
1
 40
1
 10
181.946190
 20
142.746580
 30
0.0
 10
182.895310
 20
145.303620
 30
0.0
 10
183.365590
 20
148.621890
 30
0.0
 10
183.197280
 20
151.573950
 30
0.0
  0
SPLINE
  5
19b
100
AcDbEntity
  8
Layer_1
 62
7
100
AcDbSpline
 70
8
 71
3
 72
8
 73
4
 74
0
 40
0
 40
0
 40
0
 40
0
 40
1
 40
1
 40
1
 40
1
 10
183.197280
 20
151.573950
 30
0.0
 10
182.892850
 20
156.914400
 30
0.0
 10
181.808060
 20
162.075540
 30
0.0
 10
179.810410
 20
167.688730
 30
0.0
  0
SPLINE
  5
19c
100
AcDbEntity
  8
Layer_1
 62
7
100
AcDbSpline
 70
8
 71
3
 72
8
 73
4
 74
0
 40
0
 40
0
 40
0
 40
0
 40
1
 40
1
 40
1
 40
1
 10
179.810410
 20
167.688730
 30
0.0
 10
178.251650
 20
172.068690
 30
0.0
 10
176.337760
 20
176.453650
 30
0.0
 10
172.631000
 20
184.137330
 30
0.0
  0
SPLINE
  5
19d
100
AcDbEntity
  8
Layer_1
 62
7
100
AcDbSpline
 70
8
 71
3
 72
8
 73
4
 74
0
 40
0
 40
0
 40
0
 40
0
 40
1
 40
1
 40
1
 40
1
 10
172.631000
 20
184.137330
 30
0.0
 10
171.761620
 20
185.939440
 30
0.0
 10
170.923270
 20
187.764560
 30
0.0
 10
170.767550
 20
188.193420
 30
0.0
  0
SPLINE
  5
19e
100
AcDbEntity
  8
Layer_1
 62
7
100
AcDbSpline
 70
8
 71
3
 72
8
 73
4
 74
0
 40
0
 40
0
 40
0
 40
0
 40
1
 40
1
 40
1
 40
1
 10
170.767550
 20
188.193420
 30
0.0
 10
170.214180
 20
189.716110
 30
0.0
 10
169.963680
 20
193.106930
 30
0.0
 10
170.222880
 20
195.557310
 30
0.0
  0
SPLINE
  5
19f
100
AcDbEntity
  8
Layer_1
 62
7
100
AcDbSpline
 70
8
 71
3
 72
8
 73
4
 74
0
 40
0
 40
0
 40
0
 40
0
 40
1
 40
1
 40
1
 40
1
 10
170.222880
 20
195.557310
 30
0.0
 10
170.342960
 20
196.692280
 30
0.0
 10
170.796480
 20
199.116820
 30
0.0
 10
171.490500
 20
202.337260
 30
0.0
  0
LWPOLYLINE
  5
1a0
100
AcDbEntity
  8
Layer_1
 62
7
100
AcDbPolyline
 90
5
 70
0
 10
147.233590
 20
116.298060
 30
0.0
 10
146.227970
 20
114.870760
 30
0.0
 10
145.751510
 20
113.534930
 30
0.0
 10
145.275570
 20
112.199090
 30
0.0
 10
143.233840
 20
110.812610
 30
0.0
  0
SPLINE
  5
1a1
100
AcDbEntity
  8
Layer_1
 62
7
100
AcDbSpline
 70
8
 71
3
 72
8
 73
4
 74
0
 40
0
 40
0
 40
0
 40
0
 40
1
 40
1
 40
1
 40
1
 10
193.480370
 20
222.414585
 30
0.0
 10
187.023760
 20
233.441032
 30
0.0
 10
178.545110
 20
243.150581
 30
0.0
 10
168.489140
 20
251.033967
 30
0.0
  0
LWPOLYLINE
  5
1a2
100
AcDbEntity
  8
Layer_1
 62
7
100
AcDbPolyline
 90
4
 70
0
 10
171.490500
 20
202.337260
 30
0.0
 10
171.489990
 20
202.337260
 30
0.0
 10
171.946290
 20
204.453400
 30
0.0
 10
193.480370
 20
222.414585
 30
0.0
  0
SPLINE
  5
1a3
100
AcDbEntity
  8
Layer_1
 62
7
100
AcDbSpline
 70
8
 71
3
 72
8
 73
4
 74
0
 40
0
 40
0
 40
0
 40
0
 40
1
 40
1
 40
1
 40
1
 10
146.421240
 20
119.564470
 30
0.0
 10
146.219470
 20
119.565280
 30
0.0
 10
144.981780
 20
119.039720
 30
0.0
 10
143.030230
 20
118.122700
 30
0.0
  0
SPLINE
  5
1a4
100
AcDbEntity
  8
Layer_1
 62
7
100
AcDbSpline
 70
8
 71
3
 72
8
 73
4
 74
0
 40
0
 40
0
 40
0
 40
0
 40
1
 40
1
 40
1
 40
1
 10
143.030230
 20
118.122700
 30
0.0
 10
139.308420
 20
116.373850
 30
0.0
 10
137.604640
 20
115.380120
 30
0.0
 10
135.379550
 20
113.661470
 30
0.0
  0
LWPOLYLINE
  5
1a5
100
AcDbEntity
  8
Layer_1
 62
7
100
AcDbPolyline
 90
1
 70
1
 10
168.489140
 20
251.033967
 30
0.0
  0
SPLINE
  5
1a6
100
AcDbEntity
  8
Layer_1
 62
7
100
AcDbSpline
 70
8
 71
3
 72
8
 73
4
 74
0
 40
0
 40
0
 40
0
 40
0
 40
1
 40
1
 40
1
 40
1
 10
131.721380
 20
112.350960
 30
0.0
 10
127.480550
 20
111.771740
 30
0.0
 10
125.387310
 20
111.075390
 30
0.0
 10
123.243920
 20
109.530980
 30
0.0
  0
SPLINE
  5
1a7
100
AcDbEntity
  8
Layer_1
 62
7
100
AcDbSpline
 70
8
 71
3
 72
8
 73
4
 74
0
 40
0
 40
0
 40
0
 40
0
 40
1
 40
1
 40
1
 40
1
 10
123.243920
 20
109.530980
 30
0.0
 10
122.510720
 20
109.002690
 30
0.0
 10
122.499190
 20
108.989120
 30
0.0
 10
121.231640
 20
107.246360
 30
0.0
  0
LWPOLYLINE
  5
1a8
100
AcDbEntity
  8
Layer_1
 62
7
100
AcDbPolyline
 90
3
 70
0
 10
135.379550
 20
113.661470
 30
0.0
 10
134.103660
 20
112.676000
 30
0.0
 10
131.721380
 20
112.350960
 30
0.0
  0
SPLINE
  5
1a9
100
AcDbEntity
  8
Layer_1
 62
7
100
AcDbSpline
 70
8
 71
3
 72
8
 73
4
 74
0
 40
0
 40
0
 40
0
 40
0
 40
1
 40
1
 40
1
 40
1
 10
119.831220
 20
104.799480
 30
0.0
 10
119.746920
 20
104.333610
 30
0.0
 10
119.744020
 20
103.908910
 30
0.0
 10
119.823220
 20
103.505500
 30
0.0
  0
SPLINE
  5
1aa
100
AcDbEntity
  8
Layer_1
 62
7
100
AcDbSpline
 70
8
 71
3
 72
8
 73
4
 74
0
 40
0
 40
0
 40
0
 40
0
 40
1
 40
1
 40
1
 40
1
 10
119.823220
 20
103.505500
 30
0.0
 10
119.928340
 20
102.967790
 30
0.0
 10
119.989630
 20
102.849920
 30
0.0
 10
120.406140
 20
102.384130
 30
0.0
  0
SPLINE
  5
1ab
100
AcDbEntity
  8
Layer_1
 62
7
100
AcDbSpline
 70
8
 71
3
 72
8
 73
4
 74
0
 40
0
 40
0
 40
0
 40
0
 40
1
 40
1
 40
1
 40
1
 10
120.406140
 20
102.384130
 30
0.0
 10
120.903960
 20
101.827380
 30
0.0
 10
121.585660
 20
101.445360
 30
0.0
 10
122.655070
 20
101.124250
 30
0.0
  0
SPLINE
  5
1ac
100
AcDbEntity
  8
Layer_1
 62
7
100
AcDbSpline
 70
8
 71
3
 72
8
 73
4
 74
0
 40
0
 40
0
 40
0
 40
0
 40
1
 40
1
 40
1
 40
1
 10
122.655070
 20
101.124250
 30
0.0
 10
124.261620
 20
100.641850
 30
0.0
 10
128.478910
 20
100.481890
 30
0.0
 10
130.926880
 20
100.810060
 30
0.0
  0
LWPOLYLINE
  5
1ad
100
AcDbEntity
  8
Layer_1
 62
7
100
AcDbPolyline
 90
3
 70
0
 10
121.231640
 20
107.246360
 30
0.0
 10
119.956280
 20
105.493500
 30
0.0
 10
119.831220
 20
104.799480
 30
0.0
  0
SPLINE
  5
1ae
100
AcDbEntity
  8
Layer_1
 62
7
100
AcDbSpline
 70
8
 71
3
 72
8
 73
4
 74
0
 40
0
 40
0
 40
0
 40
0
 40
1
 40
1
 40
1
 40
1
 10
131.885970
 20
101.828600
 30
0.0
 10
132.064430
 20
104.174650
 30
0.0
 10
132.653490
 20
105.506190
 30
0.0
 10
134.127690
 20
106.897540
 30
0.0
  0
SPLINE
  5
1af
100
AcDbEntity
  8
Layer_1
 62
7
100
AcDbSpline
 70
8
 71
3
 72
8
 73
4
 74
0
 40
0
 40
0
 40
0
 40
0
 40
1
 40
1
 40
1
 40
1
 10
134.127690
 20
106.897540
 30
0.0
 10
135.700180
 20
108.381670
 30
0.0
 10
138.269600
 20
110.271340
 30
0.0
 10
141.688970
 20
112.458450
 30
0.0
  0
LWPOLYLINE
  5
1b0
100
AcDbEntity
  8
Layer_1
 62
7
100
AcDbPolyline
 90
3
 70
0
 10
130.926880
 20
100.810060
 30
0.0
 10
131.817770
 20
100.929430
 30
0.0
 10
131.885970
 20
101.828600
 30
0.0
  0
SPLINE
  5
1b1
100
AcDbEntity
  8
Layer_1
 62
7
100
AcDbSpline
 70
8
 71
3
 72
8
 73
4
 74
0
 40
0
 40
0
 40
0
 40
0
 40
1
 40
1
 40
1
 40
1
 10
144.936320
 20
116.082510
 30
0.0
 10
145.521040
 20
117.307380
 30
0.0
 10
146.110130
 20
118.578780
 30
0.0
 10
146.245800
 20
118.907660
 30
0.0
  0
SPLINE
  5
1b2
100
AcDbEntity
  8
Layer_1
 62
7
100
AcDbSpline
 70
8
 71
3
 72
8
 73
4
 74
0
 40
0
 40
0
 40
0
 40
0
 40
1
 40
1
 40
1
 40
1
 10
146.245800
 20
118.907660
 30
0.0
 10
146.381380
 20
119.236530
 30
0.0
 10
146.472560
 20
119.528840
 30
0.0
 10
146.447860
 20
119.557240
 30
0.0
  0
SPLINE
  5
1b3
100
AcDbEntity
  8
Layer_1
 62
7
100
AcDbSpline
 70
8
 71
3
 72
8
 73
4
 74
0
 40
0
 40
0
 40
0
 40
0
 40
1
 40
1
 40
1
 40
1
 10
146.447860
 20
119.557240
 30
0.0
 10
146.443860
 20
119.562240
 30
0.0
 10
146.434960
 20
119.564240
 30
0.0
 10
146.421460
 20
119.564240
 30
0.0
  0
LWPOLYLINE
  5
1b4
100
AcDbEntity
  8
Layer_1
 62
7
100
AcDbPolyline
 90
3
 70
0
 10
141.688970
 20
112.458450
 30
0.0
 10
143.872820
 20
113.855780
 30
0.0
 10
144.936320
 20
116.082510
 30
0.0
  0
SPLINE
  5
1b5
100
AcDbEntity
  8
Layer_1
 62
7
100
AcDbSpline
 70
8
 71
3
 72
8
 73
4
 74
0
 40
0
 40
0
 40
0
 40
0
 40
1
 40
1
 40
1
 40
1
 10
106.030530
 20
155.182240
 30
0.0
 10
105.323450
 20
155.185240
 30
0.0
 10
104.616320
 20
155.178240
 30
0.0
 10
103.909390
 20
155.161440
 30
0.0
  0
SPLINE
  5
1b6
100
AcDbEntity
  8
Layer_1
 62
7
100
AcDbSpline
 70
8
 71
3
 72
8
 73
4
 74
0
 40
0
 40
0
 40
0
 40
0
 40
1
 40
1
 40
1
 40
1
 10
103.909390
 20
155.161440
 30
0.0
 10
90.826490
 20
154.809540
 30
0.0
 10
75.980927
 20
150.727330
 30
0.0
 10
68.713280
 20
138.894230
 30
0.0
  0
SPLINE
  5
1b7
100
AcDbEntity
  8
Layer_1
 62
7
100
AcDbSpline
 70
8
 71
3
 72
8
 73
4
 74
0
 40
0
 40
0
 40
0
 40
0
 40
1
 40
1
 40
1
 40
1
 10
68.713280
 20
138.894230
 30
0.0
 10
65.298173
 20
131.441740
 30
0.0
 10
70.706870
 20
122.720070
 30
0.0
 10
77.768827
 20
119.807080
 30
0.0
  0
SPLINE
  5
1b8
100
AcDbEntity
  8
Layer_1
 62
7
100
AcDbSpline
 70
8
 71
3
 72
8
 73
4
 74
0
 40
0
 40
0
 40
0
 40
0
 40
1
 40
1
 40
1
 40
1
 10
77.768827
 20
119.807080
 30
0.0
 10
82.873757
 20
116.794810
 30
0.0
 10
90.336050
 20
116.653360
 30
0.0
 10
93.747150
 20
111.762280
 30
0.0
  0
SPLINE
  5
1b9
100
AcDbEntity
  8
Layer_1
 62
7
100
AcDbSpline
 70
8
 71
3
 72
8
 73
4
 74
0
 40
0
 40
0
 40
0
 40
0
 40
1
 40
1
 40
1
 40
1
 10
93.747150
 20
111.762280
 30
0.0
 10
96.996530
 20
107.103070
 30
0.0
 10
95.878870
 20
104.924320
 30
0.0
 10
95.679000
 20
94.831000
 30
0.0
  0
SPLINE
  5
1ba
100
AcDbEntity
  8
Layer_1
 62
7
100
AcDbSpline
 70
8
 71
3
 72
8
 73
4
 74
0
 40
0
 40
0
 40
0
 40
0
 40
1
 40
1
 40
1
 40
1
 10
95.679000
 20
94.831000
 30
0.0
 10
94.456950
 20
80.166360
 30
0.0
 10
84.358230
 20
73.790060
 30
0.0
 10
77.055817
 20
73.118610
 30
0.0
  0
SPLINE
  5
1bb
100
AcDbEntity
  8
Layer_1
 62
7
100
AcDbSpline
 70
8
 71
3
 72
8
 73
4
 74
0
 40
0
 40
0
 40
0
 40
0
 40
1
 40
1
 40
1
 40
1
 10
77.055817
 20
73.118610
 30
0.0
 10
79.431848
 20
72.418523
 30
0.0
 10
81.832687
 20
71.805564
 30
0.0
 10
84.253520
 20
71.280960
 30
0.0
  0
SPLINE
  5
1bc
100
AcDbEntity
  8
Layer_1
 62
7
100
AcDbSpline
 70
8
 71
3
 72
8
 73
4
 74
0
 40
0
 40
0
 40
0
 40
0
 40
1
 40
1
 40
1
 40
1
 10
84.253520
 20
71.280960
 30
0.0
 10
85.453510
 20
71.060060
 30
0.0
 10
86.656720
 20
70.844000
 30
0.0
 10
87.837150
 20
70.641090
 30
0.0
  0
SPLINE
  5
1bd
100
AcDbEntity
  8
Layer_1
 62
7
100
AcDbSpline
 70
8
 71
3
 72
8
 73
4
 74
0
 40
0
 40
0
 40
0
 40
0
 40
1
 40
1
 40
1
 40
1
 10
87.837150
 20
70.641090
 30
0.0
 10
90.254777
 20
70.185320
 30
0.0
 10
92.688161
 20
69.817514
 30
0.0
 10
95.132490
 20
69.538400
 30
0.0
  0
SPLINE
  5
1be
100
AcDbEntity
  8
Layer_1
 62
7
100
AcDbSpline
 70
8
 71
3
 72
8
 73
4
 74
0
 40
0
 40
0
 40
0
 40
0
 40
1
 40
1
 40
1
 40
1
 10
95.132490
 20
69.538400
 30
0.0
 10
95.133490
 20
69.538240
 30
0.0
 10
95.135490
 20
69.537970
 30
0.0
 10
95.136490
 20
69.537850
 30
0.0
  0
SPLINE
  5
1bf
100
AcDbEntity
  8
Layer_1
 62
7
100
AcDbSpline
 70
8
 71
3
 72
8
 73
4
 74
0
 40
0
 40
0
 40
0
 40
0
 40
1
 40
1
 40
1
 40
1
 10
95.136490
 20
69.537850
 30
0.0
 10
95.221590
 20
69.529850
 30
0.0
 10
95.306470
 20
69.522850
 30
0.0
 10
95.391530
 20
69.514750
 30
0.0
  0
SPLINE
  5
1c0
100
AcDbEntity
  8
Layer_1
 62
7
100
AcDbSpline
 70
8
 71
3
 72
8
 73
4
 74
0
 40
0
 40
0
 40
0
 40
0
 40
1
 40
1
 40
1
 40
1
 10
95.391530
 20
69.514750
 30
0.0
 10
95.391863
 20
69.514750
 30
0.0
 10
95.392197
 20
69.514750
 30
0.0
 10
95.392530
 20
69.514750
 30
0.0
  0
SPLINE
  5
1c1
100
AcDbEntity
  8
Layer_1
 62
7
100
AcDbSpline
 70
8
 71
3
 72
8
 73
4
 74
0
 40
0
 40
0
 40
0
 40
0
 40
1
 40
1
 40
1
 40
1
 10
95.392530
 20
69.514750
 30
0.0
 10
98.711653
 20
69.184285
 30
0.0
 10
102.045037
 20
69.017473
 30
0.0
 10
105.380570
 20
69.014920
 30
0.0
  0
SPLINE
  5
1c2
100
AcDbEntity
  8
Layer_1
 62
7
100
AcDbSpline
 70
8
 71
3
 72
8
 73
4
 74
0
 40
0
 40
0
 40
0
 40
0
 40
1
 40
1
 40
1
 40
1
 10
105.380570
 20
69.014920
 30
0.0
 10
107.011480
 20
69.033353
 30
0.0
 10
108.641709
 20
69.091057
 30
0.0
 10
110.269840
 20
69.187980
 30
0.0
  0
SPLINE
  5
1c3
100
AcDbEntity
  8
Layer_1
 62
7
100
AcDbSpline
 70
8
 71
3
 72
8
 73
4
 74
0
 40
0
 40
0
 40
0
 40
0
 40
1
 40
1
 40
1
 40
1
 10
110.269840
 20
69.187980
 30
0.0
 10
110.270390
 20
69.188020
 30
0.0
 10
110.271840
 20
69.187930
 30
0.0
 10
110.271840
 20
69.187980
 30
0.0
  0
SPLINE
  5
1c4
100
AcDbEntity
  8
Layer_1
 62
7
100
AcDbSpline
 70
8
 71
3
 72
8
 73
4
 74
0
 40
0
 40
0
 40
0
 40
0
 40
1
 40
1
 40
1
 40
1
 10
110.271840
 20
69.187980
 30
0.0
 10
111.647380
 20
69.269180
 30
0.0
 10
113.074720
 20
69.375980
 30
0.0
 10
114.529780
 20
69.507640
 30
0.0
  0
SPLINE
  5
1c5
100
AcDbEntity
  8
Layer_1
 62
7
100
AcDbSpline
 70
8
 71
3
 72
8
 73
4
 74
0
 40
0
 40
0
 40
0
 40
0
 40
1
 40
1
 40
1
 40
1
 10
114.529780
 20
69.507640
 30
0.0
 10
121.978017
 20
70.196695
 30
0.0
 10
129.327382
 20
71.706180
 30
0.0
 10
136.444240
 20
74.008650
 30
0.0
  0
SPLINE
  5
1c6
100
AcDbEntity
  8
Layer_1
 62
7
100
AcDbSpline
 70
8
 71
3
 72
8
 73
4
 74
0
 40
0
 40
0
 40
0
 40
0
 40
1
 40
1
 40
1
 40
1
 10
136.444240
 20
74.008650
 30
0.0
 10
129.048460
 20
74.937630
 30
0.0
 10
118.745030
 20
77.053020
 30
0.0
 10
114.623970
 20
93.831590
 30
0.0
  0
SPLINE
  5
1c7
100
AcDbEntity
  8
Layer_1
 62
7
100
AcDbSpline
 70
8
 71
3
 72
8
 73
4
 74
0
 40
0
 40
0
 40
0
 40
0
 40
1
 40
1
 40
1
 40
1
 10
114.623970
 20
93.831590
 30
0.0
 10
114.623970
 20
93.831590
 30
0.0
 10
113.426870
 20
107.851720
 30
0.0
 10
117.769530
 20
111.766520
 30
0.0
  0
SPLINE
  5
1c8
100
AcDbEntity
  8
Layer_1
 62
7
100
AcDbSpline
 70
8
 71
3
 72
8
 73
4
 74
0
 40
0
 40
0
 40
0
 40
0
 40
1
 40
1
 40
1
 40
1
 10
117.769530
 20
111.766520
 30
0.0
 10
125.394800
 20
118.640490
 30
0.0
 10
132.608990
 20
118.460820
 30
0.0
 10
138.932560
 20
123.515630
 30
0.0
  0
SPLINE
  5
1c9
100
AcDbEntity
  8
Layer_1
 62
7
100
AcDbSpline
 70
8
 71
3
 72
8
 73
4
 74
0
 40
0
 40
0
 40
0
 40
0
 40
1
 40
1
 40
1
 40
1
 10
138.932560
 20
123.515630
 30
0.0
 10
143.566440
 20
127.862690
 30
0.0
 10
145.719820
 20
135.821980
 30
0.0
 10
141.278010
 20
141.037260
 30
0.0
  0
SPLINE
  5
1ca
100
AcDbEntity
  8
Layer_1
 62
7
100
AcDbSpline
 70
8
 71
3
 72
8
 73
4
 74
0
 40
0
 40
0
 40
0
 40
0
 40
1
 40
1
 40
1
 40
1
 10
141.278010
 20
141.037260
 30
0.0
 10
133.873630
 20
151.453190
 30
0.0
 10
120.158790
 20
154.361920
 30
0.0
 10
108.150670
 20
155.137790
 30
0.0
  0
SPLINE
  5
1cb
100
AcDbEntity
  8
Layer_1
 62
7
100
AcDbSpline
 70
8
 71
3
 72
8
 73
4
 74
0
 40
0
 40
0
 40
0
 40
0
 40
1
 40
1
 40
1
 40
1
 10
108.150670
 20
155.137790
 30
0.0
 10
107.444000
 20
155.164590
 30
0.0
 10
106.736890
 20
155.178890
 30
0.0
 10
106.029810
 20
155.182190
 30
0.0
  0
LWPOLYLINE
  5
1cc
100
AcDbEntity
  8
Layer_1
 62
7
100
AcDbPolyline
 90
2
 70
0
 10
146.421460
 20
119.564240
 30
0.0
 10
146.421240
 20
119.564470
 30
0.0
  0
LWPOLYLINE
  5
1cd
100
AcDbEntity
  8
Layer_1
 62
7
100
AcDbPolyline
 90
2
 70
0
 10
106.029810
 20
155.182190
 30
0.0
 10
106.030530
 20
155.182240
 30
0.0
  0
ENDSEC
  0
SECTION
  2
OBJECTS
  0
DICTIONARY
  5
C
330
0
100
AcDbDictionary
  3
ACAD_GROUP
350
D
  3
ACAD_MLINESTYLE
350
17
  0
DICTIONARY
  5
D
330
C
100
AcDbDictionary
  0
DICTIONARY
  5
1A
330
C
100
AcDbDictionary
  0
DICTIONARY
  5
17
330
C
100
AcDbDictionary
  3
STANDARD
350
18
  0
DICTIONARY
  5
19
330
C
100
AcDbDictionary
  0
ENDSEC
  0
EOF
