<?xml version="1.0" encoding="UTF-8" standalone="no"?>
<!-- Created with Inkscape (http://www.inkscape.org/) -->

<svg
   xmlns:dc="http://purl.org/dc/elements/1.1/"
   xmlns:cc="http://creativecommons.org/ns#"
   xmlns:rdf="http://www.w3.org/1999/02/22-rdf-syntax-ns#"
   xmlns:svg="http://www.w3.org/2000/svg"
   xmlns="http://www.w3.org/2000/svg"
   xmlns:sodipodi="http://sodipodi.sourceforge.net/DTD/sodipodi-0.dtd"
   xmlns:inkscape="http://www.inkscape.org/namespaces/inkscape"
   width="210mm"
   height="297mm"
   viewBox="0 0 210 297"
   version="1.1"
   id="svg8"
   sodipodi:docname="whey-var2.svg"
   inkscape:version="0.92.2 5c3e80d, 2017-08-06">
  <defs
     id="defs2">
    <marker
       inkscape:stockid="EmptyDiamondS"
       orient="auto"
       refY="0.0"
       refX="0.0"
       id="EmptyDiamondS"
       style="overflow:visible"
       inkscape:isstock="true">
      <path
         id="path4718"
         d="M 0,-7.0710768 L -7.0710894,0 L 0,7.0710589 L 7.0710462,0 L 0,-7.0710768 z "
         style="fill-rule:evenodd;fill:#FFFFFF;stroke:#000000;stroke-width:1.0pt"
         transform="scale(0.2)" />
    </marker>
    <marker
       inkscape:stockid="EmptyDiamondM"
       orient="auto"
       refY="0.0"
       refX="0.0"
       id="EmptyDiamondM"
       style="overflow:visible"
       inkscape:isstock="true">
      <path
         id="path4715"
         d="M 0,-7.0710768 L -7.0710894,0 L 0,7.0710589 L 7.0710462,0 L 0,-7.0710768 z "
         style="fill-rule:evenodd;fill:#FFFFFF;stroke:#000000;stroke-width:1.0pt"
         transform="scale(0.4)" />
    </marker>
    <marker
       inkscape:stockid="EmptyDiamondL"
       orient="auto"
       refY="0.0"
       refX="0.0"
       id="EmptyDiamondL"
       style="overflow:visible"
       inkscape:isstock="true">
      <path
         id="path4712"
         d="M 0,-7.0710768 L -7.0710894,0 L 0,7.0710589 L 7.0710462,0 L 0,-7.0710768 z "
         style="fill-rule:evenodd;fill:#FFFFFF;stroke:#000000;stroke-width:1.0pt"
         transform="scale(0.8)" />
    </marker>
    <marker
       inkscape:stockid="DiamondSend"
       orient="auto"
       refY="0.0"
       refX="0.0"
       id="DiamondSend"
       style="overflow:visible"
       inkscape:isstock="true">
      <path
         id="path4709"
         d="M 0,-7.0710768 L -7.0710894,0 L 0,7.0710589 L 7.0710462,0 L 0,-7.0710768 z "
         style="fill-rule:evenodd;stroke:#000000;stroke-width:1.0pt"
         transform="scale(0.2) translate(-6,0)" />
    </marker>
    <marker
       inkscape:stockid="DiamondMend"
       orient="auto"
       refY="0.0"
       refX="0.0"
       id="DiamondMend"
       style="overflow:visible"
       inkscape:isstock="true">
      <path
         id="path4706"
         d="M 0,-7.0710768 L -7.0710894,0 L 0,7.0710589 L 7.0710462,0 L 0,-7.0710768 z "
         style="fill-rule:evenodd;stroke:#000000;stroke-width:1.0pt"
         transform="scale(0.4) translate(-6.5,0)" />
    </marker>
    <marker
       inkscape:stockid="DiamondLend"
       orient="auto"
       refY="0.0"
       refX="0.0"
       id="DiamondLend"
       style="overflow:visible"
       inkscape:isstock="true">
      <path
         id="path4703"
         d="M 0,-7.0710768 L -7.0710894,0 L 0,7.0710589 L 7.0710462,0 L 0,-7.0710768 z "
         style="fill-rule:evenodd;stroke:#000000;stroke-width:1.0pt"
         transform="scale(0.8) translate(-7,0)" />
    </marker>
    <marker
       inkscape:stockid="DiamondSstart"
       orient="auto"
       refY="0.0"
       refX="0.0"
       id="DiamondSstart"
       style="overflow:visible"
       inkscape:isstock="true">
      <path
         id="path4700"
         d="M 0,-7.0710768 L -7.0710894,0 L 0,7.0710589 L 7.0710462,0 L 0,-7.0710768 z "
         style="fill-rule:evenodd;stroke:#000000;stroke-width:1.0pt"
         transform="scale(0.2) translate(6,0)" />
    </marker>
    <marker
       inkscape:stockid="DiamondMstart"
       orient="auto"
       refY="0.0"
       refX="0.0"
       id="DiamondMstart"
       style="overflow:visible"
       inkscape:isstock="true">
      <path
         id="path4697"
         d="M 0,-7.0710768 L -7.0710894,0 L 0,7.0710589 L 7.0710462,0 L 0,-7.0710768 z "
         style="fill-rule:evenodd;stroke:#000000;stroke-width:1.0pt"
         transform="scale(0.4) translate(6.5,0)" />
    </marker>
    <marker
       inkscape:stockid="DiamondLstart"
       orient="auto"
       refY="0.0"
       refX="0.0"
       id="DiamondLstart"
       style="overflow:visible"
       inkscape:isstock="true">
      <path
         id="path4694"
         d="M 0,-7.0710768 L -7.0710894,0 L 0,7.0710589 L 7.0710462,0 L 0,-7.0710768 z "
         style="fill-rule:evenodd;stroke:#000000;stroke-width:1.0pt"
         transform="scale(0.8) translate(7,0)" />
    </marker>
    <marker
       inkscape:stockid="DiamondS"
       orient="auto"
       refY="0.0"
       refX="0.0"
       id="DiamondS"
       style="overflow:visible"
       inkscape:isstock="true">
      <path
         id="path4691"
         d="M 0,-7.0710768 L -7.0710894,0 L 0,7.0710589 L 7.0710462,0 L 0,-7.0710768 z "
         style="fill-rule:evenodd;stroke:#000000;stroke-width:1.0pt"
         transform="scale(0.2)" />
    </marker>
    <marker
       inkscape:stockid="DiamondM"
       orient="auto"
       refY="0.0"
       refX="0.0"
       id="DiamondM"
       style="overflow:visible"
       inkscape:isstock="true">
      <path
         id="path4688"
         d="M 0,-7.0710768 L -7.0710894,0 L 0,7.0710589 L 7.0710462,0 L 0,-7.0710768 z "
         style="fill-rule:evenodd;stroke:#000000;stroke-width:1.0pt"
         transform="scale(0.4)" />
    </marker>
    <marker
       inkscape:stockid="DiamondL"
       orient="auto"
       refY="0.0"
       refX="0.0"
       id="DiamondL"
       style="overflow:visible"
       inkscape:isstock="true">
      <path
         id="path4685"
         d="M 0,-7.0710768 L -7.0710894,0 L 0,7.0710589 L 7.0710462,0 L 0,-7.0710768 z "
         style="fill-rule:evenodd;stroke:#000000;stroke-width:1.0pt"
         transform="scale(0.8)" />
    </marker>
    <marker
       inkscape:stockid="SquareS"
       orient="auto"
       refY="0.0"
       refX="0.0"
       id="SquareS"
       style="overflow:visible"
       inkscape:isstock="true">
      <path
         id="path4682"
         d="M -5.0,-5.0 L -5.0,5.0 L 5.0,5.0 L 5.0,-5.0 L -5.0,-5.0 z "
         style="fill-rule:evenodd;stroke:#000000;stroke-width:1.0pt"
         transform="scale(0.2)" />
    </marker>
    <marker
       inkscape:stockid="SquareM"
       orient="auto"
       refY="0.0"
       refX="0.0"
       id="SquareM"
       style="overflow:visible"
       inkscape:isstock="true">
      <path
         id="path4679"
         d="M -5.0,-5.0 L -5.0,5.0 L 5.0,5.0 L 5.0,-5.0 L -5.0,-5.0 z "
         style="fill-rule:evenodd;stroke:#000000;stroke-width:1.0pt"
         transform="scale(0.4)" />
    </marker>
    <marker
       inkscape:stockid="SquareL"
       orient="auto"
       refY="0.0"
       refX="0.0"
       id="SquareL"
       style="overflow:visible"
       inkscape:isstock="true">
      <path
         id="path4676"
         d="M -5.0,-5.0 L -5.0,5.0 L 5.0,5.0 L 5.0,-5.0 L -5.0,-5.0 z "
         style="fill-rule:evenodd;stroke:#000000;stroke-width:1.0pt"
         transform="scale(0.8)" />
    </marker>
    <marker
       inkscape:stockid="DotS"
       orient="auto"
       refY="0.0"
       refX="0.0"
       id="DotS"
       style="overflow:visible"
       inkscape:isstock="true">
      <path
         id="path4673"
         d="M -2.5,-1.0 C -2.5,1.7600000 -4.7400000,4.0 -7.5,4.0 C -10.260000,4.0 -12.5,1.7600000 -12.5,-1.0 C -12.5,-3.7600000 -10.260000,-6.0 -7.5,-6.0 C -4.7400000,-6.0 -2.5,-3.7600000 -2.5,-1.0 z "
         style="fill-rule:evenodd;stroke:#000000;stroke-width:1.0pt"
         transform="scale(0.2) translate(7.4, 1)" />
    </marker>
    <marker
       inkscape:stockid="DotM"
       orient="auto"
       refY="0.0"
       refX="0.0"
       id="DotM"
       style="overflow:visible"
       inkscape:isstock="true">
      <path
         id="path4670"
         d="M -2.5,-1.0 C -2.5,1.7600000 -4.7400000,4.0 -7.5,4.0 C -10.260000,4.0 -12.5,1.7600000 -12.5,-1.0 C -12.5,-3.7600000 -10.260000,-6.0 -7.5,-6.0 C -4.7400000,-6.0 -2.5,-3.7600000 -2.5,-1.0 z "
         style="fill-rule:evenodd;stroke:#000000;stroke-width:1.0pt"
         transform="scale(0.4) translate(7.4, 1)" />
    </marker>
    <marker
       inkscape:stockid="DotL"
       orient="auto"
       refY="0.0"
       refX="0.0"
       id="DotL"
       style="overflow:visible"
       inkscape:isstock="true">
      <path
         id="path4667"
         d="M -2.5,-1.0 C -2.5,1.7600000 -4.7400000,4.0 -7.5,4.0 C -10.260000,4.0 -12.5,1.7600000 -12.5,-1.0 C -12.5,-3.7600000 -10.260000,-6.0 -7.5,-6.0 C -4.7400000,-6.0 -2.5,-3.7600000 -2.5,-1.0 z "
         style="fill-rule:evenodd;stroke:#000000;stroke-width:1.0pt"
         transform="scale(0.8) translate(7.4, 1)" />
    </marker>
    <marker
       style="overflow:visible"
       id="DistanceEnd"
       refX="0.0"
       refY="0.0"
       orient="auto"
       inkscape:stockid="DistanceEnd"
       inkscape:isstock="true">
      <g
         id="g2301">
        <path
           style="fill:none;stroke:#ffffff;stroke-width:1.15;stroke-linecap:square"
           d="M 0,0 L -2,0"
           id="path2316" />
        <path
           style="fill:#000000;fill-rule:evenodd;stroke:none"
           d="M 0,0 L -13,4 L -9,0 -13,-4 L 0,0 z "
           id="path2312" />
        <path
           style="fill:none;stroke:#000000;stroke-width:1;stroke-linecap:square"
           d="M 0,-4 L 0,40"
           id="path2314" />
      </g>
    </marker>
    <marker
       style="overflow:visible"
       id="DistanceStart"
       refX="0.0"
       refY="0.0"
       orient="auto"
       inkscape:stockid="DistanceStart"
       inkscape:isstock="true">
      <g
         id="g2300">
        <path
           style="fill:none;stroke:#ffffff;stroke-width:1.15;stroke-linecap:square"
           d="M 0,0 L 2,0"
           id="path2306" />
        <path
           style="fill:#000000;fill-rule:evenodd;stroke:none"
           d="M 0,0 L 13,4 L 9,0 13,-4 L 0,0 z "
           id="path2302" />
        <path
           style="fill:none;stroke:#000000;stroke-width:1;stroke-linecap:square"
           d="M 0,-4 L 0,40"
           id="path2304" />
      </g>
    </marker>
    <marker
       inkscape:stockid="Tail"
       orient="auto"
       refY="0.0"
       refX="0.0"
       id="Tail"
       style="overflow:visible"
       inkscape:isstock="true">
      <g
         id="g4654"
         transform="scale(-1.2)">
        <path
           id="path4642"
           d="M -3.8048674,-3.9585227 L 0.54352094,0"
           style="fill:none;fill-rule:evenodd;stroke:#000000;stroke-width:0.8;stroke-linecap:round" />
        <path
           id="path4644"
           d="M -1.2866832,-3.9585227 L 3.0617053,0"
           style="fill:none;fill-rule:evenodd;stroke:#000000;stroke-width:0.8;stroke-linecap:round" />
        <path
           id="path4646"
           d="M 1.3053582,-3.9585227 L 5.6537466,0"
           style="fill:none;fill-rule:evenodd;stroke:#000000;stroke-width:0.8;stroke-linecap:round" />
        <path
           id="path4648"
           d="M -3.8048674,4.1775838 L 0.54352094,0.21974226"
           style="fill:none;fill-rule:evenodd;stroke:#000000;stroke-width:0.8;stroke-linecap:round" />
        <path
           id="path4650"
           d="M -1.2866832,4.1775838 L 3.0617053,0.21974226"
           style="fill:none;fill-rule:evenodd;stroke:#000000;stroke-width:0.8;stroke-linecap:round" />
        <path
           id="path4652"
           d="M 1.3053582,4.1775838 L 5.6537466,0.21974226"
           style="fill:none;fill-rule:evenodd;stroke:#000000;stroke-width:0.8;stroke-linecap:round" />
      </g>
    </marker>
    <marker
       inkscape:stockid="Arrow2Send"
       orient="auto"
       refY="0.0"
       refX="0.0"
       id="Arrow2Send"
       style="overflow:visible;"
       inkscape:isstock="true">
      <path
         id="path4639"
         style="fill-rule:evenodd;stroke-width:0.62500000;stroke-linejoin:round;"
         d="M 8.7185878,4.0337352 L -2.2072895,0.016013256 L 8.7185884,-4.0017078 C 6.9730900,-1.6296469 6.9831476,1.6157441 8.7185878,4.0337352 z "
         transform="scale(0.3) rotate(180) translate(-2.3,0)" />
    </marker>
    <marker
       inkscape:stockid="Arrow2Sstart"
       orient="auto"
       refY="0.0"
       refX="0.0"
       id="Arrow2Sstart"
       style="overflow:visible"
       inkscape:isstock="true">
      <path
         id="path4636"
         style="fill-rule:evenodd;stroke-width:0.62500000;stroke-linejoin:round"
         d="M 8.7185878,4.0337352 L -2.2072895,0.016013256 L 8.7185884,-4.0017078 C 6.9730900,-1.6296469 6.9831476,1.6157441 8.7185878,4.0337352 z "
         transform="scale(0.3) translate(-2.3,0)" />
    </marker>
    <marker
       inkscape:stockid="Arrow2Mend"
       orient="auto"
       refY="0.0"
       refX="0.0"
       id="Arrow2Mend"
       style="overflow:visible;"
       inkscape:isstock="true">
      <path
         id="path4633"
         style="fill-rule:evenodd;stroke-width:0.62500000;stroke-linejoin:round;"
         d="M 8.7185878,4.0337352 L -2.2072895,0.016013256 L 8.7185884,-4.0017078 C 6.9730900,-1.6296469 6.9831476,1.6157441 8.7185878,4.0337352 z "
         transform="scale(0.6) rotate(180) translate(0,0)" />
    </marker>
    <marker
       inkscape:stockid="Arrow2Mstart"
       orient="auto"
       refY="0.0"
       refX="0.0"
       id="Arrow2Mstart"
       style="overflow:visible"
       inkscape:isstock="true">
      <path
         id="path4630"
         style="fill-rule:evenodd;stroke-width:0.62500000;stroke-linejoin:round"
         d="M 8.7185878,4.0337352 L -2.2072895,0.016013256 L 8.7185884,-4.0017078 C 6.9730900,-1.6296469 6.9831476,1.6157441 8.7185878,4.0337352 z "
         transform="scale(0.6) translate(0,0)" />
    </marker>
    <marker
       inkscape:stockid="Arrow2Lend"
       orient="auto"
       refY="0.0"
       refX="0.0"
       id="Arrow2Lend"
       style="overflow:visible;"
       inkscape:isstock="true">
      <path
         id="path4627"
         style="fill-rule:evenodd;stroke-width:0.62500000;stroke-linejoin:round;"
         d="M 8.7185878,4.0337352 L -2.2072895,0.016013256 L 8.7185884,-4.0017078 C 6.9730900,-1.6296469 6.9831476,1.6157441 8.7185878,4.0337352 z "
         transform="scale(1.1) rotate(180) translate(1,0)" />
    </marker>
    <marker
       inkscape:stockid="Arrow2Lstart"
       orient="auto"
       refY="0.0"
       refX="0.0"
       id="Arrow2Lstart"
       style="overflow:visible"
       inkscape:isstock="true">
      <path
         id="path4624"
         style="fill-rule:evenodd;stroke-width:0.62500000;stroke-linejoin:round"
         d="M 8.7185878,4.0337352 L -2.2072895,0.016013256 L 8.7185884,-4.0017078 C 6.9730900,-1.6296469 6.9831476,1.6157441 8.7185878,4.0337352 z "
         transform="scale(1.1) translate(1,0)" />
    </marker>
    <marker
       inkscape:stockid="Arrow1Send"
       orient="auto"
       refY="0.0"
       refX="0.0"
       id="Arrow1Send"
       style="overflow:visible;"
       inkscape:isstock="true">
      <path
         id="path4621"
         d="M 0.0,0.0 L 5.0,-5.0 L -12.5,0.0 L 5.0,5.0 L 0.0,0.0 z "
         style="fill-rule:evenodd;stroke:#000000;stroke-width:1.0pt;"
         transform="scale(0.2) rotate(180) translate(6,0)" />
    </marker>
    <marker
       inkscape:stockid="Arrow1Sstart"
       orient="auto"
       refY="0.0"
       refX="0.0"
       id="Arrow1Sstart"
       style="overflow:visible"
       inkscape:isstock="true">
      <path
         id="path4618"
         d="M 0.0,0.0 L 5.0,-5.0 L -12.5,0.0 L 5.0,5.0 L 0.0,0.0 z "
         style="fill-rule:evenodd;stroke:#000000;stroke-width:1.0pt"
         transform="scale(0.2) translate(6,0)" />
    </marker>
    <marker
       inkscape:stockid="Arrow1Mend"
       orient="auto"
       refY="0.0"
       refX="0.0"
       id="Arrow1Mend"
       style="overflow:visible;"
       inkscape:isstock="true">
      <path
         id="path4615"
         d="M 0.0,0.0 L 5.0,-5.0 L -12.5,0.0 L 5.0,5.0 L 0.0,0.0 z "
         style="fill-rule:evenodd;stroke:#000000;stroke-width:1.0pt;"
         transform="scale(0.4) rotate(180) translate(10,0)" />
    </marker>
    <marker
       inkscape:stockid="Arrow1Mstart"
       orient="auto"
       refY="0.0"
       refX="0.0"
       id="Arrow1Mstart"
       style="overflow:visible"
       inkscape:isstock="true">
      <path
         id="path4612"
         d="M 0.0,0.0 L 5.0,-5.0 L -12.5,0.0 L 5.0,5.0 L 0.0,0.0 z "
         style="fill-rule:evenodd;stroke:#000000;stroke-width:1.0pt"
         transform="scale(0.4) translate(10,0)" />
    </marker>
    <marker
       inkscape:stockid="Arrow1Lend"
       orient="auto"
       refY="0.0"
       refX="0.0"
       id="Arrow1Lend"
       style="overflow:visible;"
       inkscape:isstock="true">
      <path
         id="path4609"
         d="M 0.0,0.0 L 5.0,-5.0 L -12.5,0.0 L 5.0,5.0 L 0.0,0.0 z "
         style="fill-rule:evenodd;stroke:#000000;stroke-width:1.0pt;"
         transform="scale(0.8) rotate(180) translate(12.5,0)" />
    </marker>
    <marker
       inkscape:stockid="Arrow1Lstart"
       orient="auto"
       refY="0.0"
       refX="0.0"
       id="Arrow1Lstart"
       style="overflow:visible"
       inkscape:isstock="true">
      <path
         id="path4606"
         d="M 0.0,0.0 L 5.0,-5.0 L -12.5,0.0 L 5.0,5.0 L 0.0,0.0 z "
         style="fill-rule:evenodd;stroke:#000000;stroke-width:1.0pt"
         transform="scale(0.8) translate(12.5,0)" />
    </marker>
  </defs>
  <sodipodi:namedview
     id="base"
     pagecolor="#ffffff"
     bordercolor="#666666"
     borderopacity="1.0"
     inkscape:pageopacity="0.0"
     inkscape:pageshadow="2"
     inkscape:zoom="0.83224756"
     inkscape:cx="254.48286"
     inkscape:cy="627.24863"
     inkscape:document-units="mm"
     inkscape:current-layer="layer1"
     showgrid="false"
     inkscape:window-width="1680"
     inkscape:window-height="934"
     inkscape:window-x="0"
     inkscape:window-y="1"
     inkscape:window-maximized="1" />
  <metadata
     id="metadata5">
    <rdf:RDF>
      <cc:Work
         rdf:about="">
        <dc:format>image/svg+xml</dc:format>
        <dc:type
           rdf:resource="http://purl.org/dc/dcmitype/StillImage" />
        <dc:title></dc:title>
      </cc:Work>
    </rdf:RDF>
  </metadata>
  <g
     inkscape:label="Layer 1"
     inkscape:groupmode="layer"
     id="layer1"
     style="display:inline;opacity:1">
    <path
       style="opacity:0.99100001;fill:#483ed6;fill-opacity:1;stroke:#000000;stroke-width:0;stroke-miterlimit:4;stroke-dasharray:none;stroke-opacity:1"
       d="M 398.28906 91.685547 A 383.99562 383.99562 0 0 0 14.294922 475.67969 A 383.99562 383.99562 0 0 0 398.28906 859.67578 A 383.99562 383.99562 0 0 0 782.28516 475.67969 A 383.99562 383.99562 0 0 0 398.28906 91.685547 z "
       transform="scale(0.26458333)"
       id="path5180" />
    <path
       style="opacity:1;fill:#ffcc00;fill-opacity:1;stroke-width:3.813694;stroke-miterlimit:4;stroke-dasharray:none"
       d="M 398.29102 230.10938 A 110.16267 78.687621 0 0 0 288.12695 308.79688 A 110.16267 78.687621 0 0 0 317.40625 362.10938 C 340.70597 350.8151 366.2314 344.13725 393.08594 343.54492 C 423.05245 342.70572 452.50472 349.399 479.19336 362.06055 A 110.16267 78.687621 0 0 0 508.45312 308.79688 A 110.16267 78.687621 0 0 0 398.29102 230.10938 z M 398.28906 352.61328 A 192.78466 218.75156 0 0 0 205.50586 571.36328 A 192.78466 218.75156 0 0 0 209.67969 615.4707 C 209.26103 596.78419 214.31829 578.12383 225.73828 562.68945 C 263.44522 510.40721 330.70005 489.94198 392.57031 488.20117 C 447.91458 487.54777 506.54702 500.0506 549.58594 536.81641 C 570.89578 552.57144 585.2051 577.44736 588.73242 603.55664 A 192.78466 218.75156 0 0 0 591.07422 571.36328 A 192.78466 218.75156 0 0 0 398.28906 352.61328 z M 399.54883 500.54492 A 177.83403 114.09704 0 0 0 221.71484 614.64258 A 177.83403 114.09704 0 0 0 399.54883 728.74023 A 177.83403 114.09704 0 0 0 577.38281 614.64258 A 177.83403 114.09704 0 0 0 399.54883 500.54492 z "
       transform="scale(0.26458333)"
       id="path851" />
    <path
       id="path5339"
       d="m 42.098726,45.966033 c 5.20648,7.709302 16.02533,25.051377 16.17421,25.141619 0.44844,0.271764 4.11307,3.954904 6.22339,6.254913 1.10037,1.199313 1.15052,1.241843 1.71928,1.441253 0,0 1.821757,1.88599 3.021517,4.02457 3.11475,5.552072 3.3489,10.225992 3.2489,15.311212 -0.0387,1.96954 -0.17065,3.22024 -0.54467,5.17746 -0.83497,4.36934 -1.93721,6.7901 -6.518467,14.31023 -4.89431,8.03398 -6.08203,10.49037 -7.352,15.20424 -1.19013,4.41752 -1.4933,6.87657 -1.77664,14.41824 -0.31829,8.47214 -0.5415,10.05634 -1.85156,13.15011 -0.45275,1.06913 -0.60776,1.33564 -1.34152,2.30528 -1.07763,1.42404 -3.25422,3.70325 -3.8592,4.0411 -0.90187,0.50362 -1.42636,0.5377 -2.65255,0.17363 -0.22847,-0.0678 -0.48462,-0.0515 -0.62995,0.0403 -0.19227,0.12148 -0.28535,0.10908 -0.43098,-0.0579 -0.10301,-0.11816 -0.18879,-0.32692 -0.19379,-0.46974 -0.006,-0.17653 -0.11618,-0.40376 -0.35191,-0.7245 -0.45377,-0.61748 -0.47825,-0.76665 -0.79065,-4.80591 -0.1415,-1.82966 -0.34177,-4.32356 -0.44545,-5.5423 -0.10366,-1.21873 -0.23443,-3.25347 -0.29042,-4.52168 -0.19746,-4.47566 -0.66361,-10.08171 -0.92811,-11.1616 -0.16291,-0.66522 -0.63008,-1.41723 -0.94362,-1.51877 -0.17564,-0.0569 -0.19424,0.0124 -0.26354,0.98961 -0.24084,3.40244 -0.013,13.92915 0.49195,22.71902 0.14882,2.59057 0.38197,3.5768 1.1312,4.78524 0.50086,0.80785 1.00975,1.29384 1.85157,1.76837 1.28401,0.72376 3.32774,0.75682 5.00074,0.0811 0.75231,-0.30386 1.48043,-0.83157 2.4138,-1.74976 l 0.6811,-0.66973 0.30954,0.33383 c 0.17018,0.18369 1.25707,1.67484 2.41587,3.31349 l 2.10685,2.97915 0.37724,1.00252 0.37672,1.00253 0.88832,0.95549 c 1.10583,1.18912 2.67245,3.1664 3.98839,5.03329 l 1.00562,1.4273 0.47646,1.33583 0.47594,1.33584 2.04173,1.38648 c 3.342767,2.26992 4.344957,3.05857 6.794924,5.34799 1.66233,1.5534 1.90406,1.83112 2.38021,2.72955 1.08332,2.04424 1.42548,4.5608 0.88367,6.50297 -0.23189,0.83113 -0.26048,0.88321 -0.88057,1.5968 -0.60599,0.69734 -0.67566,0.7486 -1.26814,0.93637 -0.98522,0.3123 -1.98983,0.11532 -4.002847,-0.78445 -0.92055,-0.41148 -2.32504,-0.99912 -3.12125,-1.30586 -2.315857,-0.89217 -3.481987,-1.50769 -5.135597,-2.71094 -2.08968,-1.52055 -3.53112,-2.86939 -5.01882,-4.69636 -2.55739,-3.14059 -2.47743,-3.05277 -3.43648,-3.78995 -0.50535,-0.38843 -1.84242,-1.29909 -2.9714,-2.02416 -4.51876,-2.90214 -4.17648,-2.57834 -7.05591,-6.67918 -2.53941,-3.61663 -2.88551,-4.1753 -6.40529,-10.34097 -3.77025,-6.60445 -4.95565,-8.64303 -6.43785,-11.07116 -1.87878,-3.07776 -2.54124,-4.30889 -3.03702,-5.64462 -0.94912,-2.55704 -1.4194,-5.87531 -1.25109,-8.82737 0.30443,-5.34045 1.38922,-10.50159 3.38687,-16.11478 1.55876,-4.37996 3.47265,-8.76492 7.17941,-16.4486 0.86938,-1.80211 1.70773,-3.62723 1.86345,-4.05609 0.55337,-1.52269 0.80388,-4.91351 0.54467,-7.36389 -0.12008,-1.13497 -0.5736,-3.55951 -1.26762,-6.77995 h 5.1e-4 l -0.4563,-2.11614 -21.53408,-17.961185 c 6.45662,-11.026447 14.93526,-20.735996 24.99124,-28.619382 z m 22.06791,131.469497 c 0.20177,-8.1e-4 1.43946,0.52475 3.39101,1.44177 3.721807,1.74885 5.425587,2.74258 7.650674,4.46123 l 1.27589,0.98547 2.38228,0.32504 c 4.24083,0.57922 6.334073,1.27557 8.477463,2.81998 0.7332,0.52829 0.74473,0.54186 2.01228,2.28462 l 1.27536,1.75286 0.12506,0.69402 c 0.0843,0.46587 0.0872,0.89057 0.008,1.29398 -0.10512,0.53771 -0.16641,0.65558 -0.58292,1.12137 -0.49782,0.55675 -1.17952,0.93877 -2.24893,1.25988 -1.60655,0.4824 -5.823843,0.64236 -8.271813,0.31419 l -0.89089,-0.11937 -0.0682,-0.89917 c -0.17846,-2.34605 -0.76752,-3.67759 -2.24172,-5.06894 -1.57249,-1.48413 -4.141907,-3.3738 -7.561277,-5.56091 l -2.183847,-1.39733 -1.0635,-2.22673 c -0.58472,-1.22487 -1.17381,-2.49627 -1.30948,-2.82515 -0.13558,-0.32887 -0.22676,-0.62118 -0.20206,-0.64958 0.004,-0.005 0.0129,-0.007 0.0264,-0.007 z"
       style="fill:#f9f9f9;stroke-width:0.09643231"
       inkscape:connector-curvature="0"
       sodipodi:nodetypes="ccccscscscccccccccccccccsccccccccccccccccccccccccccccccccsccccccccccccccccccccccccccccccc" />
    <path
       sodipodi:nodetypes="ccccscscscccccccccccccccsccccccccccccccccccccccccccccccccsccccccccccccccccccccccccccccccc"
       inkscape:connector-curvature="0"
       style="fill:#f9f9f9;stroke-width:0.09643231"
       d="m 168.48914,45.966033 c -5.20648,7.709302 -16.02532,25.051377 -16.1742,25.141619 -0.44844,0.271764 -4.11307,3.954904 -6.22339,6.254913 -1.10037,1.199313 -1.15052,1.241843 -1.71928,1.441253 0,0 -1.82176,1.88599 -3.02152,4.02457 -3.11475,5.552072 -3.3489,10.225992 -3.2489,15.311212 0.0387,1.96954 0.17065,3.22024 0.54467,5.17746 0.83497,4.36934 1.93721,6.7901 6.51847,14.31023 4.89431,8.03398 6.08203,10.49037 7.352,15.20424 1.19013,4.41752 1.4933,6.87657 1.77664,14.41824 0.31828,8.47214 0.54149,10.05634 1.85155,13.15011 0.45275,1.06913 0.60776,1.33564 1.34152,2.30528 1.07763,1.42404 3.25422,3.70325 3.8592,4.0411 0.90187,0.50362 1.42636,0.5377 2.65255,0.17363 0.22846,-0.0678 0.48461,-0.0515 0.62994,0.0403 0.19227,0.12148 0.28536,0.10908 0.43099,-0.0579 0.10301,-0.11816 0.18879,-0.32692 0.19379,-0.46974 0.006,-0.17653 0.11618,-0.40376 0.35191,-0.7245 0.45377,-0.61748 0.47825,-0.76665 0.79065,-4.80591 0.1415,-1.82966 0.34177,-4.32356 0.44545,-5.5423 0.10366,-1.21873 0.23443,-3.25347 0.29042,-4.52168 0.19746,-4.47566 0.66361,-10.08171 0.92811,-11.1616 0.16291,-0.66522 0.63008,-1.41723 0.94362,-1.51877 0.17564,-0.0569 0.19424,0.0124 0.26354,0.98961 0.24084,3.40244 0.013,13.92915 -0.49195,22.71902 -0.14882,2.59057 -0.38197,3.5768 -1.1312,4.78524 -0.50086,0.80785 -1.00975,1.29384 -1.85157,1.76837 -1.28402,0.72376 -3.32774,0.75682 -5.00074,0.0811 -0.75231,-0.30386 -1.48043,-0.83157 -2.4138,-1.74976 l -0.6811,-0.66973 -0.30954,0.33383 c -0.17018,0.18369 -1.25707,1.67484 -2.41587,3.31349 l -2.10684,2.97915 -0.37724,1.00252 -0.37672,1.00253 -0.88832,0.95549 c -1.10583,1.18912 -2.67245,3.1664 -3.98839,5.03329 l -1.00562,1.4273 -0.47646,1.33583 -0.47594,1.33584 -2.04173,1.38648 c -3.34277,2.26992 -4.34496,3.05857 -6.79493,5.34799 -1.66233,1.5534 -1.90406,1.83112 -2.38021,2.72955 -1.08332,2.04424 -1.42548,4.5608 -0.88367,6.50297 0.23189,0.83113 0.26048,0.88321 0.88057,1.5968 0.60599,0.69734 0.67566,0.7486 1.26814,0.93637 0.98522,0.3123 1.98983,0.11532 4.00285,-0.78445 0.92055,-0.41148 2.32504,-0.99912 3.12125,-1.30586 2.31586,-0.89217 3.48199,-1.50769 5.1356,-2.71094 2.08968,-1.52055 3.53112,-2.86939 5.01882,-4.69636 2.55738,-3.14059 2.47742,-3.05277 3.43647,-3.78995 0.50535,-0.38843 1.84242,-1.29909 2.9714,-2.02416 4.51876,-2.90214 4.17648,-2.57834 7.05591,-6.67918 2.53941,-3.61663 2.88551,-4.1753 6.40528,-10.34097 3.77025,-6.60445 4.95565,-8.64303 6.43785,-11.07116 1.87878,-3.07776 2.54124,-4.30889 3.03702,-5.64462 0.94912,-2.55704 1.4194,-5.87531 1.25109,-8.82737 -0.30443,-5.34045 -1.38922,-10.50159 -3.38687,-16.11478 -1.55876,-4.37996 -3.47265,-8.76492 -7.17941,-16.4486 -0.86938,-1.80211 -1.70773,-3.62723 -1.86345,-4.05609 -0.55337,-1.52269 -0.80387,-4.91351 -0.54467,-7.36389 0.12008,-1.13497 0.5736,-3.55951 1.26762,-6.77995 h -5.1e-4 l 0.4563,-2.11614 21.53408,-17.961185 C 187.02376,63.558968 178.54511,53.849419 168.48914,45.966033 Z m -22.0679,131.469497 c -0.20177,-8.1e-4 -1.43946,0.52475 -3.39101,1.44177 -3.72181,1.74885 -5.42559,2.74258 -7.65068,4.46123 l -1.27589,0.98547 -2.38228,0.32504 c -4.24083,0.57922 -6.33407,1.27557 -8.47746,2.81998 -0.7332,0.52829 -0.74473,0.54186 -2.01228,2.28462 l -1.27536,1.75286 -0.12506,0.69402 c -0.0843,0.46587 -0.0872,0.89057 -0.008,1.29398 0.10512,0.53771 0.16641,0.65558 0.58292,1.12137 0.49782,0.55675 1.17952,0.93877 2.24893,1.25988 1.60655,0.4824 5.82384,0.64236 8.27181,0.31419 l 0.89089,-0.11937 0.0682,-0.89917 c 0.17846,-2.34605 0.76752,-3.67759 2.24172,-5.06894 1.57249,-1.48413 4.14191,-3.3738 7.56128,-5.56091 l 2.18385,-1.39733 1.0635,-2.22673 c 0.58472,-1.22487 1.17381,-2.49627 1.30948,-2.82515 0.13558,-0.32887 0.22676,-0.62118 0.20206,-0.64958 -0.004,-0.005 -0.0129,-0.007 -0.0264,-0.007 z"
       id="path234" />
    <path
       style="opacity:0.84600004;fill:#ffeeaa;fill-opacity:1;stroke:#000000;stroke-width:0;stroke-miterlimit:4;stroke-dasharray:none;stroke-opacity:1"
       d="m 106.03053,141.81776 c -0.70708,-0.003 -1.41421,0.004 -2.12114,0.0208 -13.0829,0.3519 -27.928463,4.43411 -35.19611,16.26721 -3.415107,7.45249 1.99359,16.17416 9.055547,19.08715 5.10493,3.01227 12.567223,3.15372 15.978323,8.0448 3.24938,4.65921 2.13172,6.83796 1.93185,16.93128 -1.22205,14.66464 -11.32077,21.04094 -18.623183,21.71239 a 101.59884,101.59884 0 0 0 7.197703,1.83765 c 1.19999,0.2209 2.4032,0.43696 3.58363,0.63987 a 101.59884,101.59884 0 0 0 7.29534,1.10269 c 10e-4,1.6e-4 0.003,4.3e-4 0.004,5.5e-4 0.0851,0.008 0.16998,0.015 0.25504,0.0231 a 101.59884,101.59884 0 0 0 10e-4,0 101.59884,101.59884 0 0 0 9.98804,0.49983 101.59884,101.59884 0 0 0 4.88927,-0.17306 c 5.5e-4,-4e-5 0.002,5e-5 0.002,0 1.37554,-0.0812 2.80288,-0.188 4.25794,-0.31966 a 101.59884,101.59884 0 0 0 21.91446,-4.50101 c -7.39578,-0.92898 -17.69921,-3.04437 -21.82027,-19.82294 0,0 -1.1971,-14.02013 3.14556,-17.93493 7.62527,-6.87397 14.83946,-6.6943 21.16303,-11.74911 4.63388,-4.34706 6.78726,-12.30635 2.34545,-17.52163 -7.40438,-10.41593 -21.11922,-13.32466 -33.12734,-14.10053 -0.70667,-0.0268 -1.41378,-0.0411 -2.12086,-0.0444 z"
       id="path5221"
       inkscape:connector-curvature="0" />
  </g>
</svg>
